<svg xmlns="http://www.w3.org/2000/svg" viewBox="0 0 400 216" role="img" aria-label="Brookline Tennis Academy">
  <g transform="scale(0.16666667)"><g transform="translate(0.000000,1296.000000) scale(0.100000,-0.100000)" fill="#E4E025"><path d="M4690 11692 c0 -5 -9 -18 -20 -30 -20 -21 -29 -22 -180 -22 -88 0
-160 -4 -160 -8 0 -5 -9 -18 -20 -30 -19 -20 -31 -22 -120 -22 -55 0 -100 -4
-100 -8 0 -5 -9 -18 -20 -30 -18 -19 -32 -22 -90 -22 -39 0 -70 -4 -70 -8 0
-5 -9 -18 -20 -30 -18 -19 -32 -22 -90 -22 -62 0 -71 -2 -81 -22 -16 -32 -28
-38 -71 -38 -28 0 -40 -5 -49 -22 -16 -32 -28 -38 -71 -38 -28 0 -40 -5 -49
-22 -18 -34 -28 -38 -100 -38 -59 0 -67 -2 -78 -24 -7 -13 -24 -29 -37 -35
-13 -6 -24 -15 -24 -20 0 -22 -34 -41 -70 -41 -31 0 -42 -5 -51 -22 -17 -32
-28 -38 -72 -38 -30 0 -40 -5 -48 -24 -6 -13 -22 -29 -35 -35 -13 -6 -24 -15
-24 -20 0 -22 -34 -41 -71 -41 -32 0 -41 -4 -51 -25 -6 -13 -19 -27 -28 -30
-9 -3 -23 -16 -30 -30 -7 -14 -21 -27 -32 -31 -10 -3 -18 -9 -18 -13 0 -23
-44 -51 -81 -51 -32 0 -41 -4 -51 -25 -6 -13 -19 -27 -28 -30 -9 -3 -23 -16
-30 -30 -7 -14 -21 -27 -30 -30 -9 -3 -23 -16 -30 -30 -7 -14 -21 -27 -30 -30
-9 -3 -23 -16 -30 -30 -7 -14 -21 -27 -30 -30 -9 -3 -23 -16 -30 -30 -7 -14
-21 -27 -30 -30 -9 -3 -23 -16 -30 -30 -7 -14 -21 -27 -30 -30 -9 -3 -23 -16
-30 -30 -7 -14 -21 -27 -30 -30 -9 -3 -23 -16 -30 -30 -7 -14 -21 -27 -30 -30
-9 -3 -23 -16 -29 -29 -7 -13 -24 -29 -37 -35 -20 -9 -24 -18 -24 -56 0 -38
-4 -47 -24 -56 -13 -6 -30 -22 -37 -35 -6 -13 -20 -26 -29 -29 -9 -3 -23 -16
-29 -29 -7 -13 -24 -29 -37 -35 -20 -9 -24 -18 -24 -56 0 -38 -4 -47 -24 -56
-13 -6 -29 -21 -36 -34 -7 -13 -23 -28 -36 -33 -18 -9 -23 -20 -26 -59 -3 -41
-7 -50 -31 -61 -23 -11 -27 -19 -27 -58 0 -37 -4 -46 -24 -55 -13 -6 -30 -22
-37 -35 -6 -13 -21 -26 -31 -30 -25 -8 -40 -49 -32 -90 9 -48 -1 -79 -30 -92
-21 -9 -25 -19 -28 -59 -2 -39 -7 -50 -28 -60 -20 -10 -26 -22 -30 -60 -4 -38
-10 -50 -30 -60 -32 -16 -39 -37 -33 -99 6 -52 3 -57 -42 -89 -17 -11 -20 -23
-18 -79 3 -66 1 -71 -42 -100 -17 -13 -19 -24 -17 -109 3 -98 3 -100 -42 -131
-18 -12 -19 -25 -17 -169 2 -161 3 -159 -42 -190 -17 -12 -18 -43 -18 -507 0
-464 1 -495 18 -507 45 -31 44 -29 42 -190 -2 -144 -1 -157 17 -169 45 -31 45
-33 42 -131 -2 -85 0 -96 17 -109 43 -29 45 -34 42 -100 -2 -56 1 -68 18 -79
45 -32 48 -37 42 -89 -6 -62 1 -83 33 -99 20 -10 26 -22 30 -60 4 -38 10 -50
30 -60 21 -10 26 -21 28 -60 3 -40 7 -50 28 -59 29 -13 39 -44 30 -92 -8 -41
7 -82 32 -90 10 -4 25 -17 31 -30 7 -13 24 -29 37 -35 20 -9 24 -18 24 -55 0
-39 4 -47 28 -58 23 -11 27 -20 30 -61 3 -39 8 -50 26 -59 13 -5 29 -20 36
-33 7 -13 23 -28 36 -34 20 -9 24 -18 24 -56 0 -38 4 -47 24 -56 13 -6 30 -22
37 -35 6 -13 20 -26 29 -29 9 -3 23 -16 29 -29 7 -13 24 -29 37 -35 20 -9 24
-18 24 -56 0 -38 4 -47 24 -56 13 -6 30 -22 37 -35 6 -13 20 -26 29 -29 9 -3
23 -16 30 -30 7 -14 21 -27 30 -30 9 -3 23 -16 30 -30 7 -14 21 -27 30 -30 9
-3 23 -16 30 -30 7 -14 21 -27 30 -30 9 -3 23 -16 30 -30 7 -14 21 -27 30 -30
9 -3 23 -16 30 -30 7 -14 21 -27 30 -30 9 -3 23 -16 30 -30 7 -14 21 -27 30
-30 9 -3 23 -16 30 -30 7 -14 21 -27 30 -30 9 -3 22 -17 28 -30 10 -21 19 -25
51 -25 37 0 81 -28 81 -51 0 -4 8 -10 18 -13 11 -4 25 -17 32 -31 7 -14 21
-27 30 -30 9 -3 22 -17 28 -30 10 -21 19 -25 51 -25 37 0 71 -19 71 -41 0 -5
11 -14 24 -20 13 -6 29 -22 35 -35 8 -19 18 -24 48 -24 44 0 55 -6 72 -37 9
-18 20 -23 51 -23 36 0 70 -19 70 -41 0 -5 11 -14 24 -20 13 -6 30 -22 37 -35
11 -22 19 -24 78 -24 72 0 82 -4 100 -38 9 -17 21 -22 49 -22 43 0 55 -6 71
-37 9 -18 21 -23 49 -23 43 0 55 -6 71 -37 10 -21 19 -23 81 -23 58 0 72 -3
90 -22 11 -12 20 -25 20 -30 0 -4 31 -8 70 -8 58 0 72 -3 90 -22 11 -12 20
-25 20 -30 0 -4 45 -8 100 -8 89 0 101 -2 120 -22 11 -12 20 -25 20 -30 0 -4
72 -8 160 -8 151 0 160 -1 180 -22 11 -12 20 -25 20 -30 0 -4 225 -8 500 -8
275 0 500 4 500 8 0 5 9 18 20 30 20 21 29 22 180 22 88 0 160 4 160 8 0 5 9
18 20 30 19 20 31 22 120 22 55 0 100 4 100 8 0 5 9 18 20 30 18 19 32 22 90
22 39 0 70 4 70 8 0 5 9 18 20 30 18 19 32 22 90 22 62 0 71 2 81 22 16 32 28
38 71 38 28 0 40 5 49 23 16 31 28 37 71 37 28 0 40 5 49 23 18 33 28 37 100
37 59 0 67 2 78 24 7 13 24 29 37 35 13 6 24 15 24 20 0 22 34 41 70 41 31 0
42 5 51 23 17 31 28 37 72 37 30 0 40 5 48 24 6 13 22 29 35 35 13 6 24 15 24
20 0 22 34 41 71 41 32 0 41 4 51 25 6 13 19 27 28 30 9 3 23 16 30 30 7 14
21 27 32 31 10 3 18 9 18 13 0 23 44 51 81 51 32 0 41 4 51 25 6 13 19 27 28
30 9 3 23 16 30 30 7 14 21 27 30 30 9 3 23 16 30 30 7 14 21 27 30 30 9 3 23
16 30 30 7 14 21 27 30 30 9 3 23 16 30 30 7 14 21 27 30 30 9 3 23 16 30 30
7 14 21 27 30 30 9 3 23 16 30 30 7 14 21 27 30 30 9 3 23 16 30 30 7 14 21
27 30 30 9 3 23 16 29 29 7 13 24 29 37 35 20 9 24 18 24 56 0 38 4 47 24 56
13 6 30 22 37 35 6 13 20 26 29 29 9 3 23 16 29 29 7 13 24 29 37 35 20 9 24
18 24 56 0 38 4 47 24 56 13 6 29 21 36 34 7 13 23 28 36 33 18 9 23 20 26 59
3 41 7 50 31 61 23 11 27 19 27 58 0 37 4 46 24 55 13 6 30 22 37 35 6 13 21
26 31 30 25 8 40 49 32 90 -9 48 1 79 30 92 21 9 25 19 28 59 2 39 7 50 28 60
20 10 26 22 30 60 4 38 10 50 30 60 32 16 39 37 33 99 -6 52 -3 57 42 89 17
11 20 23 18 79 -3 66 -1 71 42 100 17 13 19 24 17 109 -3 98 -3 100 42 131 18
12 19 25 17 169 -2 161 -3 159 42 190 17 12 18 43 18 507 0 464 -1 495 -18
507 -45 31 -44 29 -42 190 2 144 1 157 -17 169 -45 31 -45 33 -42 131 2 85 0
96 -17 109 -43 29 -45 34 -42 100 2 56 -1 68 -18 79 -45 32 -48 37 -42 89 6
62 -1 83 -33 99 -20 10 -26 22 -30 60 -4 38 -10 50 -30 60 -21 10 -26 21 -28
60 -3 40 -7 50 -28 59 -29 13 -39 44 -30 92 8 41 -7 82 -32 90 -10 4 -25 17
-31 30 -7 13 -24 29 -37 35 -20 9 -24 18 -24 55 0 39 -4 47 -27 58 -24 11 -28
20 -31 61 -3 39 -8 50 -26 59 -13 5 -29 20 -36 33 -7 13 -23 28 -36 34 -20 9
-24 18 -24 56 0 38 -4 47 -24 56 -13 6 -30 22 -37 35 -6 13 -20 26 -29 29 -9
3 -23 16 -29 29 -7 13 -24 29 -37 35 -20 9 -24 18 -24 56 0 38 -4 47 -24 56
-13 6 -30 22 -37 35 -6 13 -20 26 -29 29 -9 3 -23 16 -30 30 -7 14 -21 27 -30
30 -9 3 -23 16 -30 30 -7 14 -21 27 -30 30 -9 3 -23 16 -30 30 -7 14 -21 27
-30 30 -9 3 -23 16 -30 30 -7 14 -21 27 -30 30 -9 3 -23 16 -30 30 -7 14 -21
27 -30 30 -9 3 -23 16 -30 30 -7 14 -21 27 -30 30 -9 3 -23 16 -30 30 -7 14
-21 27 -30 30 -9 3 -22 17 -28 30 -10 21 -19 25 -51 25 -37 0 -81 28 -81 51 0
4 -8 10 -18 13 -11 4 -25 17 -32 31 -7 14 -21 27 -30 30 -9 3 -22 17 -28 30
-10 21 -19 25 -51 25 -37 0 -71 19 -71 41 0 5 -11 14 -24 20 -13 6 -29 22 -35
35 -8 19 -18 24 -48 24 -44 0 -55 6 -72 38 -9 17 -20 22 -51 22 -36 0 -70 19
-70 41 0 5 -11 14 -24 20 -13 6 -30 22 -37 35 -11 22 -19 24 -78 24 -72 0 -82
4 -100 38 -9 17 -21 22 -49 22 -43 0 -55 6 -71 38 -9 17 -21 22 -49 22 -43 0
-55 6 -71 38 -10 20 -19 22 -81 22 -58 0 -72 3 -90 22 -11 12 -20 25 -20 30 0
4 -31 8 -70 8 -58 0 -72 3 -90 22 -11 12 -20 25 -20 30 0 4 -45 8 -100 8 -89
0 -101 2 -120 22 -11 12 -20 25 -20 30 0 4 -72 8 -160 8 -151 0 -160 1 -180
22 -11 12 -20 25 -20 30 0 4 -225 8 -500 8 -275 0 -500 -4 -500 -8z m1000
-494 c11 -12 20 -25 20 -30 0 -4 58 -8 130 -8 120 0 131 -2 150 -22 11 -12 20
-25 20 -30 0 -4 31 -8 70 -8 58 0 72 -3 90 -22 11 -12 20 -25 20 -30 0 -4 44
-8 98 -8 104 0 113 -3 131 -37 9 -18 21 -23 49 -23 43 0 55 -6 71 -37 9 -18
21 -23 49 -23 43 0 55 -6 71 -37 9 -18 20 -23 51 -23 24 0 44 -6 52 -16 17
-20 42 -45 63 -62 14 -12 16 -65 15 -500 -1 -460 0 -487 17 -499 44 -30 44
-31 42 -160 -3 -115 -1 -127 17 -139 45 -31 45 -33 42 -131 -2 -85 0 -96 17
-109 46 -31 46 -33 43 -131 -2 -85 0 -96 17 -109 43 -29 45 -34 42 -100 -2
-56 1 -68 18 -79 46 -32 46 -34 43 -132 -2 -85 0 -96 17 -109 47 -32 46 -31
44 -161 -3 -115 -1 -127 17 -139 46 -32 45 -29 43 -191 -2 -144 -1 -157 17
-169 10 -7 25 -18 32 -24 9 -8 12 -149 12 -640 0 -491 -3 -632 -12 -640 -7 -6
-22 -17 -32 -24 -18 -12 -20 -24 -17 -139 2 -130 3 -129 -44 -162 -17 -11 -20
-23 -18 -79 3 -66 1 -71 -42 -101 -16 -11 -20 -23 -18 -67 3 -73 -3 -93 -31
-106 -21 -9 -25 -19 -28 -59 -3 -41 -7 -50 -30 -61 -24 -11 -28 -19 -28 -58 0
-37 -4 -46 -24 -55 -13 -6 -30 -22 -37 -35 -6 -13 -20 -26 -29 -29 -9 -3 -23
-16 -29 -29 -7 -13 -24 -29 -37 -35 -20 -9 -24 -18 -24 -54 0 -54 -13 -67 -67
-67 -37 0 -45 -4 -55 -25 -6 -13 -19 -27 -28 -30 -9 -3 -23 -16 -30 -30 -7
-14 -21 -27 -30 -30 -9 -3 -23 -16 -30 -30 -7 -14 -21 -27 -32 -31 -10 -3 -18
-9 -18 -13 0 -23 -44 -51 -80 -51 -31 0 -42 -5 -51 -22 -16 -32 -28 -38 -71
-38 -28 0 -40 -5 -49 -22 -16 -32 -28 -38 -71 -38 -28 0 -40 -5 -49 -22 -18
-34 -28 -38 -101 -38 -38 0 -68 -4 -68 -8 0 -5 -9 -18 -20 -30 -19 -20 -30
-22 -150 -22 -72 0 -130 -4 -130 -8 0 -5 -9 -18 -20 -30 -21 -22 -21 -22 -500
-22 -479 0 -479 0 -500 22 -11 12 -20 25 -20 30 0 4 -58 8 -130 8 -120 0 -131
2 -150 22 -11 12 -20 25 -20 30 0 4 -30 8 -67 8 -74 0 -84 4 -102 37 -9 18
-21 23 -49 23 -43 0 -55 6 -71 38 -9 17 -21 22 -49 22 -43 0 -55 6 -71 38 -9
17 -20 22 -51 22 -36 0 -80 28 -80 51 0 4 -8 10 -18 13 -11 4 -25 17 -32 31
-7 14 -21 27 -30 30 -9 3 -22 17 -28 30 -10 21 -19 25 -51 25 -37 0 -71 19
-71 41 0 5 -11 14 -24 20 -13 6 -29 21 -36 34 -7 13 -23 28 -36 34 -20 9 -24
18 -24 56 0 38 -4 47 -24 56 -13 6 -29 21 -36 34 -7 13 -23 28 -36 34 -20 9
-24 18 -24 55 0 39 -4 47 -27 58 -24 11 -28 20 -31 61 -3 40 -7 50 -28 59 -28
13 -34 33 -31 106 2 44 -2 56 -18 67 -43 30 -45 35 -42 101 2 56 -1 68 -18 79
-47 33 -46 32 -44 162 3 115 1 127 -17 139 -10 7 -25 18 -31 24 -19 16 -19
1084 0 1100 6 6 21 17 31 24 18 12 19 25 17 169 -2 162 -3 159 43 191 18 12
20 24 17 139 -2 130 -3 129 44 161 17 13 19 24 17 109 -3 98 -3 100 43 131 17
13 19 24 17 109 -3 98 -3 100 43 132 17 11 20 23 18 79 -3 66 -1 71 42 100 17
13 19 24 17 109 -3 98 -3 100 42 131 18 12 20 24 17 139 -2 130 -2 129 43 161
18 12 19 25 17 169 -2 161 -3 159 42 190 18 12 19 34 18 378 -1 200 2 369 6
375 5 6 18 16 30 23 17 9 23 22 25 58 3 41 7 50 31 61 15 7 27 17 27 22 0 21
34 40 70 40 31 0 42 5 51 23 16 31 28 37 71 37 28 0 40 5 49 23 18 34 27 37
132 37 53 0 97 4 97 8 0 5 9 18 20 30 18 19 32 22 90 22 39 0 70 4 70 8 0 5 9
18 20 30 20 21 29 22 180 22 88 0 160 4 160 8 0 5 9 18 20 30 21 22 21 22 470
22 449 0 449 0 470 -22z m-2462 -662 c3 -11 -7 -27 -23 -40 -28 -22 -28 -22
-26 -263 2 -253 4 -245 -43 -277 -18 -12 -20 -24 -17 -139 2 -130 3 -129 -43
-161 -18 -12 -20 -24 -17 -139 2 -130 3 -129 -44 -161 -17 -13 -19 -24 -17
-109 3 -98 3 -100 -43 -131 -17 -13 -19 -24 -17 -109 3 -98 3 -100 -43 -132
-17 -11 -20 -23 -18 -79 3 -66 1 -71 -41 -100 -18 -12 -20 -24 -17 -139 2
-130 3 -129 -43 -161 -18 -12 -20 -24 -17 -139 2 -130 2 -129 -43 -161 -18
-12 -19 -25 -17 -169 2 -161 3 -159 -42 -190 -17 -11 -18 -46 -18 -567 0 -521
1 -556 18 -567 44 -30 44 -31 42 -160 -3 -115 -1 -127 17 -139 45 -31 45 -33
42 -131 -2 -85 0 -96 17 -109 45 -31 48 -36 42 -88 -6 -62 1 -83 33 -99 20
-10 26 -22 30 -60 4 -38 10 -50 30 -60 20 -10 26 -22 30 -60 4 -38 10 -50 30
-60 20 -10 26 -22 30 -60 4 -38 10 -50 30 -60 21 -10 26 -21 28 -60 3 -39 8
-50 26 -59 13 -5 30 -21 37 -34 6 -13 20 -26 29 -29 9 -3 23 -16 30 -30 7 -14
21 -27 30 -30 9 -3 23 -16 30 -30 7 -14 21 -27 30 -30 9 -3 23 -16 30 -30 7
-14 21 -27 30 -30 9 -3 23 -16 30 -30 7 -14 21 -27 30 -30 9 -3 23 -16 30 -30
7 -14 21 -27 30 -30 9 -3 23 -16 30 -30 7 -14 21 -27 30 -30 9 -3 22 -17 28
-30 10 -21 19 -25 51 -25 37 0 71 -19 71 -41 0 -5 11 -14 24 -20 13 -6 29 -22
35 -35 8 -19 18 -24 48 -24 44 0 55 -6 72 -37 10 -20 19 -23 79 -23 73 0 83
-4 101 -37 9 -18 21 -23 49 -23 43 0 55 -6 71 -37 11 -22 18 -23 111 -23 89 0
101 -2 120 -22 11 -12 20 -25 20 -30 0 -4 58 -8 130 -8 120 0 131 -2 150 -22
11 -12 20 -25 20 -30 0 -4 225 -8 500 -8 275 0 500 4 500 8 0 5 9 18 20 30 20
21 29 22 180 22 88 0 160 4 160 8 0 5 9 18 20 30 18 19 32 22 90 22 62 0 71 2
81 22 16 32 28 38 71 38 28 0 40 5 49 23 18 33 28 37 101 37 60 0 69 3 79 23
17 31 28 37 72 37 30 0 40 5 48 24 6 13 22 29 35 35 13 6 24 15 24 20 0 22 34
41 71 41 32 0 41 4 51 25 6 13 19 27 28 30 9 3 23 16 30 30 7 14 21 27 30 30
9 3 23 16 30 30 7 14 21 27 30 30 9 3 23 16 30 30 7 14 21 27 30 30 9 3 23 16
30 30 7 14 21 27 30 30 9 3 23 16 30 30 7 14 21 27 30 30 9 3 23 16 29 29 7
13 24 29 37 35 20 9 24 18 24 56 0 38 4 47 24 56 13 6 29 21 36 34 7 13 23 28
36 33 18 9 23 20 26 59 2 39 7 50 28 60 20 10 26 22 30 60 4 38 10 50 30 60
20 10 26 22 30 60 4 38 10 50 30 60 32 16 39 37 33 99 -6 52 -3 57 42 89 17
11 20 23 18 79 -3 66 -1 71 41 100 18 12 19 25 17 169 -2 161 -3 159 42 190
27 19 27 1235 0 1254 -45 31 -44 26 -42 251 2 201 0 216 -17 228 -45 31 -45
33 -42 131 2 85 0 96 -17 109 -46 31 -46 33 -43 131 2 85 0 96 -17 109 -46 31
-46 33 -43 131 2 85 0 96 -17 109 -43 29 -45 34 -42 100 2 56 -1 68 -18 79
-46 32 -46 34 -43 132 2 85 0 96 -17 109 -47 32 -46 31 -44 161 3 115 1 127
-17 139 -47 32 -45 20 -43 342 1 214 -2 307 -10 310 -6 2 -21 12 -33 22 -22
17 -22 17 25 65 48 47 48 47 97 -6 28 -30 50 -57 50 -61 0 -4 8 -9 18 -12 11
-4 25 -17 32 -31 7 -14 21 -27 30 -30 9 -3 23 -16 30 -30 7 -14 21 -27 30 -30
9 -3 23 -16 30 -30 7 -14 21 -27 30 -30 9 -3 23 -16 30 -30 7 -14 21 -27 30
-30 9 -3 23 -16 30 -30 7 -14 21 -27 30 -30 9 -3 23 -16 30 -30 7 -14 21 -27
30 -30 9 -3 23 -16 30 -30 7 -14 21 -27 30 -30 9 -3 23 -16 30 -30 7 -14 21
-27 30 -30 9 -3 23 -16 30 -30 7 -14 21 -27 30 -30 9 -3 23 -16 29 -29 7 -13
24 -29 37 -35 20 -9 24 -18 24 -56 0 -38 4 -47 24 -56 13 -6 29 -21 36 -34 7
-13 23 -28 36 -34 20 -9 24 -18 24 -56 0 -38 4 -47 24 -56 13 -6 29 -21 36
-34 7 -13 23 -28 36 -34 20 -9 24 -18 24 -55 0 -39 4 -47 28 -58 22 -11 28
-21 32 -61 4 -38 10 -50 30 -60 21 -10 26 -21 28 -60 3 -40 7 -50 28 -59 29
-13 39 -44 30 -92 -8 -43 4 -74 34 -89 20 -10 26 -21 28 -60 2 -36 8 -49 25
-58 35 -19 37 -28 35 -127 -2 -84 0 -95 17 -108 46 -31 46 -33 43 -131 -2 -85
0 -96 17 -109 48 -32 46 -23 44 -282 -1 -230 0 -246 17 -258 43 -30 44 -32 44
-154 0 -122 -1 -124 -44 -154 -17 -12 -19 -27 -17 -228 2 -227 3 -220 -44
-252 -17 -13 -19 -24 -17 -109 3 -98 3 -100 -43 -131 -17 -13 -19 -24 -17
-109 3 -98 3 -100 -43 -132 -16 -11 -20 -23 -18 -67 3 -73 -3 -93 -31 -106
-21 -9 -25 -19 -28 -59 -2 -39 -7 -50 -28 -60 -20 -10 -26 -22 -30 -60 -4 -38
-10 -50 -30 -60 -20 -10 -26 -22 -30 -60 -4 -38 -10 -50 -30 -60 -20 -10 -26
-22 -30 -60 -4 -40 -10 -50 -32 -61 -24 -11 -28 -19 -28 -58 0 -37 -4 -46 -24
-55 -13 -6 -29 -21 -36 -34 -7 -13 -23 -28 -36 -34 -20 -9 -24 -18 -24 -56 0
-38 -4 -47 -24 -56 -13 -6 -30 -22 -37 -35 -6 -13 -20 -26 -29 -29 -9 -3 -23
-16 -30 -30 -7 -14 -21 -27 -30 -30 -9 -3 -23 -16 -29 -29 -7 -13 -24 -29 -37
-35 -20 -9 -24 -18 -24 -56 0 -38 -4 -47 -24 -56 -13 -6 -30 -22 -37 -35 -6
-13 -20 -26 -29 -29 -9 -3 -23 -16 -30 -30 -7 -14 -21 -27 -30 -30 -9 -3 -23
-16 -30 -30 -7 -14 -21 -27 -30 -30 -9 -3 -23 -16 -30 -30 -7 -14 -21 -27 -32
-31 -10 -3 -18 -9 -18 -13 0 -23 -44 -51 -81 -51 -32 0 -41 -4 -51 -25 -6 -13
-19 -27 -28 -30 -9 -3 -23 -16 -30 -30 -7 -14 -21 -27 -30 -30 -9 -3 -23 -16
-30 -30 -7 -14 -21 -27 -32 -31 -10 -3 -18 -9 -18 -13 0 -23 -44 -51 -80 -51
-31 0 -42 -5 -51 -22 -17 -32 -28 -38 -72 -38 -30 0 -40 -5 -48 -24 -6 -13
-22 -29 -35 -35 -13 -6 -24 -15 -24 -20 0 -22 -34 -41 -70 -41 -31 0 -42 -5
-51 -22 -16 -32 -28 -38 -71 -38 -28 0 -40 -5 -49 -22 -16 -32 -28 -38 -71
-38 -28 0 -40 -5 -49 -22 -18 -34 -28 -38 -101 -38 -60 0 -69 -3 -79 -22 -16
-32 -28 -38 -71 -38 -28 0 -40 -5 -49 -23 -18 -34 -27 -37 -131 -37 -54 0 -98
-4 -98 -8 0 -5 -9 -18 -20 -30 -19 -20 -30 -22 -150 -22 -72 0 -130 -4 -130
-8 0 -5 -9 -18 -20 -30 -21 -22 -21 -22 -560 -22 -539 0 -539 0 -560 22 -11
12 -20 25 -20 30 0 4 -58 8 -130 8 -120 0 -131 2 -150 22 -11 12 -20 25 -20
30 0 4 -44 8 -97 8 -105 0 -114 3 -132 38 -9 17 -21 22 -49 22 -43 0 -55 6
-71 38 -10 19 -19 22 -79 22 -73 0 -83 4 -101 38 -9 17 -21 22 -49 22 -43 0
-55 6 -71 38 -9 17 -21 22 -49 22 -43 0 -55 6 -71 37 -9 18 -20 23 -51 23 -36
0 -70 19 -70 41 0 5 -11 14 -24 20 -13 6 -29 22 -35 35 -8 19 -18 24 -50 24
-37 0 -71 19 -71 41 0 5 -11 14 -24 20 -13 6 -29 22 -35 35 -9 19 -18 24 -50
24 -37 0 -81 28 -81 51 0 4 -8 10 -18 13 -11 4 -25 17 -32 31 -7 14 -21 27
-30 30 -9 3 -23 16 -30 30 -7 14 -21 27 -30 30 -9 3 -23 16 -30 30 -7 14 -21
27 -30 30 -9 3 -22 17 -28 30 -10 21 -19 25 -51 25 -37 0 -71 19 -71 41 0 5
-11 14 -24 20 -13 6 -29 21 -36 34 -7 13 -23 28 -36 34 -20 9 -24 18 -24 56 0
38 -4 47 -24 56 -13 6 -30 22 -37 35 -6 13 -20 26 -29 29 -9 3 -23 16 -30 30
-7 14 -21 27 -30 30 -9 3 -23 16 -29 29 -7 13 -24 29 -37 35 -20 9 -24 18 -24
56 0 38 -4 47 -24 56 -13 6 -29 21 -36 34 -7 13 -23 28 -36 34 -20 9 -24 18
-24 56 0 38 -4 47 -24 56 -13 6 -29 21 -36 34 -7 13 -23 28 -36 34 -20 9 -24
18 -24 55 0 39 -4 47 -27 58 -23 11 -29 21 -33 61 -4 38 -10 50 -30 60 -21 10
-26 21 -28 60 -3 40 -7 50 -28 59 -28 13 -34 33 -31 106 2 44 -2 56 -18 67
-43 30 -45 35 -42 101 2 56 -1 68 -18 79 -43 30 -45 35 -42 101 2 56 -1 68
-18 79 -46 32 -46 34 -43 132 2 85 0 96 -17 109 -11 7 -26 18 -32 24 -19 16
-19 1204 0 1220 6 6 21 17 31 24 18 12 20 24 17 139 -2 130 -3 129 44 162 17
11 20 23 18 79 -3 66 -1 71 42 101 17 11 20 23 18 79 -3 66 -1 71 42 101 16
11 20 23 18 67 -3 73 3 93 31 106 21 9 25 19 28 59 3 41 7 50 31 61 23 11 27
19 27 58 0 37 4 46 24 55 13 6 29 21 36 34 7 13 23 28 36 33 18 9 23 20 26 59
3 41 7 50 31 61 23 11 27 19 27 58 0 37 4 46 24 55 13 6 30 22 37 35 6 13 20
26 29 29 9 3 23 16 29 29 7 13 24 29 37 35 20 9 24 18 24 56 0 38 4 47 24 56
13 6 30 22 37 35 6 13 20 26 29 29 9 3 23 16 30 30 7 14 21 27 30 30 9 3 23
16 30 30 7 14 21 27 30 30 9 3 23 16 30 30 7 14 21 27 30 30 9 3 23 16 30 30
7 14 21 27 30 30 9 3 23 16 30 30 7 14 21 27 30 30 9 3 23 16 30 30 7 14 21
27 30 30 9 3 23 16 30 30 7 14 21 27 30 30 9 3 23 16 30 30 7 14 21 27 32 31
10 3 18 9 18 13 0 23 44 51 80 51 31 0 42 5 51 23 17 31 29 38 69 35 25 -2 36
-8 38 -22z"/></g></g>
  <g transform="scale(0.16666667)"><g transform="translate(0.000000,1296.000000) scale(0.100000,-0.100000)" fill="#0175A0"><path d="M4750 11212 c0 -5 -9 -18 -20 -30 -20 -21 -29 -22 -180 -22 -88 0
-160 -4 -160 -8 0 -5 -9 -18 -20 -30 -18 -19 -32 -22 -90 -22 -39 0 -70 -4
-70 -8 0 -5 -9 -18 -20 -30 -19 -20 -31 -22 -120 -22 -93 0 -100 -1 -111 -22
-16 -32 -28 -38 -71 -38 -28 0 -40 -5 -49 -22 -17 -32 -28 -38 -72 -38 -30 0
-40 -5 -48 -24 -6 -13 -22 -29 -35 -34 -18 -9 -23 -20 -26 -59 -3 -41 -7 -50
-30 -61 -16 -7 -28 -21 -28 -30 -1 -9 -1 -175 0 -369 1 -276 -2 -354 -12 -363
-7 -6 -22 -17 -32 -24 -18 -12 -19 -25 -17 -169 2 -162 3 -159 -43 -191 -18
-12 -20 -24 -17 -139 2 -130 3 -129 -44 -161 -17 -13 -19 -24 -17 -109 3 -98
3 -100 -43 -132 -17 -11 -20 -23 -18 -79 3 -66 1 -71 -42 -100 -17 -13 -19
-24 -17 -109 3 -98 3 -100 -43 -131 -17 -13 -19 -24 -17 -109 3 -98 3 -100
-42 -131 -18 -12 -20 -24 -17 -139 2 -130 2 -129 -43 -161 -18 -12 -19 -25
-17 -169 2 -161 3 -159 -42 -190 -28 -19 -28 -1115 0 -1134 44 -30 44 -31 42
-160 -3 -115 -1 -127 17 -139 42 -29 44 -34 41 -100 -2 -56 1 -68 18 -79 45
-32 48 -37 42 -89 -6 -62 1 -83 33 -99 20 -10 26 -22 30 -60 4 -38 10 -50 30
-60 21 -10 26 -21 28 -60 3 -39 8 -50 26 -59 13 -5 29 -20 36 -33 7 -13 23
-28 36 -34 20 -9 24 -18 24 -56 0 -38 4 -47 24 -56 13 -6 30 -22 37 -35 6 -13
20 -26 29 -29 9 -3 22 -17 28 -30 10 -21 19 -25 51 -25 37 0 81 -28 81 -51 0
-4 8 -10 18 -13 11 -4 25 -17 32 -31 7 -14 21 -27 30 -30 9 -3 22 -17 28 -30
9 -20 19 -25 49 -25 44 0 55 -6 72 -37 9 -18 21 -23 49 -23 43 0 55 -6 71 -37
9 -18 21 -23 49 -23 43 0 55 -6 71 -37 10 -21 19 -23 81 -23 58 0 72 -3 90
-22 11 -12 20 -25 20 -30 0 -4 58 -8 130 -8 120 0 131 -2 150 -22 11 -12 20
-25 20 -30 0 -4 225 -8 500 -8 275 0 500 4 500 8 0 5 9 18 20 30 19 20 30 22
150 22 72 0 130 4 130 8 0 5 9 18 20 30 18 19 32 22 90 22 62 0 71 2 81 23 16
31 28 37 71 37 28 0 40 5 49 23 16 31 28 37 71 37 28 0 40 5 49 23 17 31 28
37 72 37 30 0 40 5 49 25 6 13 19 27 28 30 9 3 23 16 30 30 7 14 21 27 30 30
9 3 23 16 30 30 7 14 21 27 32 31 10 3 18 8 18 12 1 24 35 47 78 52 47 5 47 5
50 53 3 39 8 50 26 59 13 5 30 21 37 34 6 13 20 26 29 29 9 3 23 16 29 29 7
13 24 29 37 34 18 9 23 20 26 59 2 39 7 50 28 60 20 10 26 22 30 60 4 38 10
50 30 60 32 16 39 37 33 99 -6 52 -3 57 42 89 17 11 20 23 18 79 -3 66 -1 71
41 100 18 12 20 24 17 139 -2 129 -2 130 42 160 27 19 27 1295 0 1314 -45 31
-44 29 -42 190 2 144 1 157 -17 169 -45 32 -45 31 -43 161 3 115 1 127 -17
139 -45 31 -45 33 -42 131 2 85 0 96 -17 109 -43 29 -45 34 -42 100 2 56 -1
68 -18 79 -46 32 -46 34 -43 132 2 85 0 96 -17 109 -46 31 -46 33 -43 131 2
85 0 96 -17 109 -47 32 -46 31 -44 161 3 115 1 127 -17 139 -10 7 -25 18 -32
24 -10 9 -13 111 -12 483 0 260 1 480 0 490 0 9 -11 22 -24 28 -13 6 -29 22
-35 35 -8 19 -18 24 -48 24 -44 0 -55 6 -72 38 -9 17 -21 22 -49 22 -43 0 -55
6 -71 38 -9 17 -21 22 -49 22 -43 0 -55 6 -71 38 -11 21 -18 22 -111 22 -89 0
-101 2 -120 22 -11 12 -20 25 -20 30 0 4 -31 8 -70 8 -58 0 -72 3 -90 22 -11
12 -20 25 -20 30 0 4 -58 8 -130 8 -120 0 -131 2 -150 22 -11 12 -20 25 -20
30 0 4 -211 8 -470 8 -258 0 -470 -4 -470 -8z M3155 10560 c-11 -4 -30 -20
-42 -34 -18 -20 -32 -26 -63 -26 -33 0 -42 -4 -52 -25 -6 -13 -19 -27 -28 -30
-9 -3 -23 -16 -30 -30 -7 -14 -21 -27 -30 -30 -9 -3 -23 -16 -30 -30 -7 -14
-21 -27 -30 -30 -9 -3 -23 -16 -30 -30 -7 -14 -21 -27 -30 -30 -9 -3 -23 -16
-30 -30 -7 -14 -21 -27 -30 -30 -9 -3 -23 -16 -30 -30 -7 -14 -21 -27 -30 -30
-9 -3 -23 -16 -30 -30 -7 -14 -21 -27 -30 -30 -9 -3 -23 -16 -30 -30 -7 -14
-21 -27 -30 -30 -9 -3 -23 -16 -30 -30 -7 -14 -21 -27 -30 -30 -9 -3 -23 -16
-29 -29 -7 -13 -24 -29 -37 -35 -20 -9 -24 -18 -24 -56 0 -38 -4 -47 -24 -56
-13 -6 -30 -22 -37 -35 -6 -13 -20 -26 -29 -29 -9 -3 -23 -16 -29 -29 -7 -13
-24 -29 -37 -34 -18 -9 -23 -20 -26 -59 -3 -41 -7 -50 -30 -61 -24 -11 -28
-19 -28 -58 0 -37 -4 -46 -24 -55 -13 -6 -29 -21 -36 -34 -7 -13 -23 -28 -36
-33 -18 -9 -23 -20 -26 -59 -2 -39 -7 -50 -28 -60 -20 -10 -26 -22 -30 -60 -4
-38 -10 -50 -30 -60 -32 -16 -39 -37 -33 -99 6 -52 3 -57 -42 -89 -17 -11 -20
-23 -18 -79 3 -66 1 -71 -42 -101 -17 -11 -20 -23 -18 -79 3 -66 1 -71 -41
-100 -18 -12 -20 -24 -17 -139 2 -129 2 -130 -42 -160 -17 -11 -18 -49 -18
-627 0 -578 1 -616 18 -627 43 -30 44 -32 41 -130 -2 -85 0 -96 17 -109 43
-29 45 -34 42 -100 -2 -56 1 -68 18 -79 43 -30 45 -35 42 -101 -2 -56 1 -68
18 -79 45 -32 48 -37 42 -89 -6 -62 1 -83 33 -99 20 -10 26 -22 30 -60 4 -38
10 -50 30 -60 20 -10 26 -22 30 -60 4 -38 10 -50 30 -60 21 -10 26 -21 28 -60
3 -39 8 -50 26 -59 13 -5 29 -20 36 -33 7 -13 23 -28 36 -34 20 -9 24 -18 24
-56 0 -38 4 -47 24 -56 13 -6 29 -21 36 -34 7 -13 23 -28 36 -34 20 -9 24 -18
24 -56 0 -38 4 -47 24 -56 13 -6 30 -22 37 -35 6 -13 20 -26 29 -29 9 -3 23
-16 30 -30 7 -14 21 -27 30 -30 9 -3 23 -16 29 -29 7 -13 24 -29 37 -35 20 -9
24 -18 24 -56 0 -38 4 -47 24 -56 13 -6 30 -22 37 -35 6 -13 20 -26 29 -29 9
-3 22 -17 28 -30 10 -21 19 -25 51 -25 37 0 81 -28 81 -51 0 -4 8 -10 18 -13
11 -4 25 -17 32 -31 7 -14 21 -27 30 -30 9 -3 23 -16 30 -30 7 -14 21 -27 30
-30 9 -3 23 -16 30 -30 7 -14 21 -27 30 -30 9 -3 22 -17 28 -30 10 -21 19 -25
51 -25 37 0 71 -19 71 -41 0 -5 11 -14 24 -20 13 -6 29 -22 35 -35 8 -19 18
-24 50 -24 37 0 71 -19 71 -41 0 -5 11 -14 24 -20 13 -6 29 -22 35 -35 8 -19
18 -24 48 -24 44 0 55 -6 72 -38 9 -17 21 -22 49 -22 43 0 55 -6 71 -37 9 -18
21 -23 49 -23 43 0 55 -6 71 -37 10 -20 19 -23 79 -23 73 0 83 -4 101 -37 9
-18 21 -23 49 -23 43 0 55 -6 71 -37 11 -22 18 -23 111 -23 89 0 101 -2 120
-22 11 -12 20 -25 20 -30 0 -4 58 -8 130 -8 120 0 131 -2 150 -22 11 -12 20
-25 20 -30 0 -4 252 -8 560 -8 308 0 560 4 560 8 0 5 9 18 20 30 19 20 30 22
150 22 72 0 130 4 130 8 0 5 9 18 20 30 19 20 31 22 120 22 93 0 100 1 111 23
16 31 28 37 71 37 28 0 40 5 49 22 18 34 28 38 101 38 60 0 69 3 79 23 16 31
28 37 71 37 28 0 40 5 49 23 16 31 28 37 71 37 28 0 40 5 49 22 17 32 28 38
72 38 30 0 40 5 48 24 6 13 22 29 35 35 13 6 24 15 24 20 0 22 34 41 70 41 31
0 42 5 51 23 17 31 28 37 72 37 30 0 40 5 49 25 6 13 19 27 28 30 9 3 23 16
30 30 7 14 21 27 30 30 9 3 23 16 30 30 7 14 21 27 32 31 10 3 18 9 18 13 0
23 44 51 81 51 32 0 41 4 51 25 6 13 19 27 28 30 9 3 23 16 30 30 7 14 21 27
30 30 9 3 23 16 30 30 7 14 21 27 30 30 9 3 23 16 30 30 7 14 21 27 30 30 9 3
23 16 29 29 7 13 24 29 37 35 20 9 24 18 24 56 0 38 4 47 24 56 13 6 30 22 37
35 6 13 20 26 29 29 9 3 23 16 30 30 7 14 21 27 30 30 9 3 23 16 29 29 7 13
24 29 37 35 20 9 24 18 24 56 0 38 4 47 24 56 13 6 29 21 36 34 7 13 23 28 36
33 18 9 23 20 26 59 2 39 7 50 28 60 20 10 26 22 30 60 4 38 10 50 30 60 20
10 26 22 30 60 4 38 10 50 30 60 20 10 26 22 30 60 4 38 10 50 30 60 20 10 26
22 30 60 4 38 10 50 30 60 32 16 39 37 33 99 -6 52 -3 57 42 88 17 13 19 24
17 109 -3 98 -3 100 43 131 17 13 19 24 17 109 -3 98 -3 100 42 131 17 12 19
27 17 228 -2 226 -3 220 43 252 17 11 19 27 19 146 0 119 -2 135 -19 146 -46
32 -45 24 -43 282 1 230 0 246 -17 258 -44 31 -45 33 -42 131 2 85 0 96 -17
109 -46 31 -47 34 -45 118 3 113 3 113 -27 128 -24 11 -28 20 -31 61 -3 40 -7
50 -28 59 -29 13 -39 44 -30 92 8 43 -4 74 -34 89 -20 10 -26 22 -30 60 -4 38
-10 50 -30 60 -20 10 -26 22 -30 60 -4 38 -10 50 -30 60 -21 10 -26 21 -28 60
-3 39 -8 50 -26 59 -13 5 -29 20 -36 33 -7 13 -23 28 -36 34 -20 9 -24 18 -24
56 0 38 -4 47 -24 56 -13 6 -29 21 -36 34 -7 13 -23 28 -36 34 -20 9 -24 18
-24 56 0 38 -4 47 -24 56 -13 6 -30 22 -37 35 -6 13 -20 26 -29 29 -9 3 -23
16 -30 30 -7 14 -21 27 -30 30 -9 3 -23 16 -30 30 -7 14 -21 27 -30 30 -9 3
-23 16 -30 30 -7 14 -21 27 -30 30 -9 3 -23 16 -30 30 -7 14 -21 27 -30 30 -9
3 -23 16 -30 30 -7 14 -21 27 -30 30 -9 3 -23 16 -30 30 -7 14 -21 27 -30 30
-9 3 -23 16 -30 30 -7 14 -21 27 -30 30 -9 3 -23 16 -30 30 -7 14 -21 27 -30
30 -9 3 -23 16 -30 30 -7 14 -21 27 -32 31 -10 3 -18 8 -18 12 0 13 -86 102
-99 102 -21 0 -93 -78 -89 -96 2 -9 12 -22 23 -28 11 -6 23 -15 28 -21 4 -5 7
-147 6 -314 -1 -286 0 -306 17 -318 45 -30 45 -30 43 -160 -3 -115 -1 -127 17
-139 45 -31 45 -33 42 -131 -2 -85 0 -96 17 -109 43 -29 45 -34 42 -100 -2
-56 1 -68 18 -79 46 -32 46 -34 43 -132 -2 -85 0 -96 17 -109 46 -31 46 -33
43 -131 -2 -85 0 -96 17 -109 46 -31 46 -33 43 -131 -2 -85 0 -96 17 -109 47
-32 46 -25 44 -252 -2 -201 0 -216 17 -228 11 -7 25 -18 32 -24 9 -8 12 -143
12 -610 0 -467 -3 -602 -12 -610 -7 -6 -22 -17 -32 -24 -18 -12 -19 -25 -17
-169 2 -162 3 -159 -44 -192 -17 -11 -20 -23 -18 -79 3 -66 1 -71 -42 -101
-16 -11 -20 -23 -18 -67 3 -73 -3 -93 -31 -106 -21 -9 -25 -19 -28 -59 -2 -39
-7 -50 -28 -60 -20 -10 -26 -22 -30 -60 -4 -40 -10 -50 -32 -61 -24 -11 -28
-19 -28 -58 0 -37 -4 -46 -24 -55 -13 -6 -29 -21 -36 -34 -7 -13 -23 -28 -36
-34 -20 -9 -24 -18 -24 -56 0 -38 -4 -47 -24 -56 -13 -6 -30 -22 -37 -35 -6
-13 -20 -26 -29 -29 -9 -3 -23 -16 -30 -30 -7 -14 -21 -27 -30 -30 -9 -3 -23
-16 -30 -30 -7 -14 -21 -27 -30 -30 -9 -3 -23 -16 -30 -30 -7 -14 -21 -27 -30
-30 -9 -3 -23 -16 -30 -30 -7 -14 -21 -27 -30 -30 -9 -3 -23 -16 -30 -30 -7
-14 -21 -27 -32 -31 -10 -3 -18 -9 -18 -13 0 -23 -44 -51 -81 -51 -32 0 -41
-5 -50 -24 -6 -13 -22 -29 -35 -35 -13 -6 -24 -15 -24 -20 0 -22 -34 -41 -70
-41 -31 0 -42 -5 -51 -23 -18 -33 -28 -37 -101 -37 -60 0 -69 -3 -79 -23 -16
-31 -28 -37 -71 -37 -28 0 -40 -5 -49 -22 -18 -34 -28 -38 -101 -38 -38 0 -68
-4 -68 -8 0 -5 -9 -18 -20 -30 -20 -21 -29 -22 -180 -22 -88 0 -160 -4 -160
-8 0 -5 -9 -18 -20 -30 -21 -22 -21 -22 -500 -22 -479 0 -479 0 -500 22 -11
12 -20 25 -20 30 0 4 -58 8 -130 8 -120 0 -131 2 -150 22 -11 12 -20 25 -20
30 0 4 -44 8 -97 8 -105 0 -114 3 -132 38 -9 17 -21 22 -49 22 -43 0 -55 6
-71 38 -10 19 -19 22 -79 22 -73 0 -83 4 -101 37 -9 18 -20 23 -51 23 -36 0
-70 19 -70 41 0 5 -11 14 -24 20 -13 6 -29 22 -35 35 -9 19 -18 24 -50 24 -37
0 -81 28 -81 51 0 4 -8 10 -18 13 -11 4 -25 17 -32 31 -7 14 -21 27 -30 30 -9
3 -23 16 -30 30 -7 14 -21 27 -30 30 -9 3 -23 16 -30 30 -7 14 -21 27 -30 30
-9 3 -23 16 -30 30 -7 14 -21 27 -30 30 -9 3 -23 16 -30 30 -7 14 -21 27 -30
30 -9 3 -23 16 -30 30 -7 14 -21 27 -30 30 -9 3 -23 16 -29 29 -7 13 -24 29
-37 35 -20 9 -24 18 -24 55 0 39 -4 47 -27 58 -23 11 -29 21 -33 61 -4 38 -10
50 -30 60 -20 10 -26 22 -30 60 -4 38 -10 50 -30 60 -21 10 -26 21 -28 60 -3
40 -7 50 -28 59 -28 13 -34 33 -31 106 2 44 -2 56 -18 67 -46 32 -46 34 -43
132 2 85 0 96 -17 109 -47 32 -46 31 -44 161 3 115 1 127 -17 139 -10 7 -25
18 -31 24 -19 16 -19 1084 0 1100 6 6 21 17 31 24 18 12 19 25 17 169 -2 162
-3 159 43 191 18 12 20 24 17 139 -2 130 -3 129 43 161 18 12 20 24 17 139 -2
130 -3 129 44 162 17 11 20 23 18 79 -3 66 -1 71 42 100 17 13 19 24 17 109
-3 98 -3 100 43 131 17 13 19 24 17 109 -3 98 -3 100 42 131 18 12 20 24 17
139 -2 130 -3 129 43 161 18 12 20 24 17 139 -2 130 -2 129 43 161 17 12 18
28 17 258 -2 246 -2 246 28 268 63 44 19 101 -54 70z"/></g></g>
  <g transform="scale(0.16666667)"><g transform="translate(0.000000,1296.000000) scale(0.100000,-0.100000)" fill="#F7F5EF"><path d="M19385 10969 c-4 -6 -7 -82 -7 -169 0 -87 3 -163 7 -169 4 -7 48 -11
114 -11 103 0 108 1 120 24 7 13 24 29 37 35 27 12 26 9 26 121 0 112 1 109
-26 121 -13 6 -30 22 -37 35 -12 23 -17 24 -120 24 -66 0 -110 -4 -114 -11z
M9902 10898 c-9 -28 -8 -191 2 -207 4 -6 26 -11 50 -11 23 0 47 -5 54 -12 17
-17 17 -1039 0 -1056 -7 -7 -31 -12 -55 -12 -36 0 -45 -4 -51 -22 -9 -28 -8
-191 2 -207 5 -7 67 -11 199 -11 192 0 192 0 220 32 27 33 27 33 55 0 27 -32
27 -32 278 -32 251 0 251 0 264 25 7 13 21 27 30 30 9 3 23 16 30 30 7 14 21
27 30 30 9 3 23 16 30 30 7 14 21 27 30 30 9 3 23 16 29 29 7 13 24 29 37 34
18 9 23 20 26 59 3 41 7 50 31 61 15 7 27 20 28 28 0 7 0 77 0 154 0 77 0 147
0 154 -1 8 -13 21 -28 28 -23 11 -29 21 -33 61 -4 38 -10 50 -30 60 -21 10
-26 21 -28 60 -3 39 -8 50 -26 59 -13 5 -29 21 -35 34 -8 19 -18 24 -48 24
-44 0 -55 6 -72 38 -9 17 -21 22 -49 22 -43 0 -55 6 -71 38 -11 21 -17 22
-151 22 -77 0 -140 -4 -140 -8 0 -5 -9 -18 -20 -30 -17 -18 -32 -22 -80 -22
-93 0 -91 -4 -89 245 1 117 -1 218 -5 224 -5 7 -70 11 -207 11 -198 0 -200 0
-207 -22z m826 -719 c9 -12 23 -27 30 -33 7 -6 21 -19 30 -30 19 -20 34 -35
57 -54 22 -19 22 -305 0 -324 -23 -19 -38 -34 -57 -54 -9 -11 -23 -24 -30 -30
-7 -6 -21 -21 -30 -33 -16 -18 -28 -21 -105 -21 -95 0 -104 3 -122 38 -9 17
-20 22 -54 22 -54 0 -67 13 -67 67 0 34 -5 45 -22 54 -35 18 -38 27 -38 119 0
91 3 101 37 119 17 8 23 22 25 58 2 34 8 49 23 57 11 6 23 16 28 23 25 40 37
43 158 43 109 0 121 -2 137 -21z M15902 10898 c-9 -28 -8 -191 2 -207 4 -6 26
-11 50 -11 23 0 47 -5 54 -12 17 -17 17 -1039 0 -1056 -7 -7 -31 -12 -55 -12
-36 0 -45 -4 -51 -22 -9 -28 -8 -191 2 -207 10 -16 402 -15 412 1 4 7 7 67 5
134 -2 103 0 124 14 136 18 14 27 24 93 95 46 51 36 55 143 -64 9 -10 37 -36
62 -58 26 -22 47 -43 47 -46 0 -3 -27 -28 -60 -54 -33 -26 -60 -55 -60 -63 0
-8 19 -32 42 -54 41 -38 41 -38 295 -38 253 0 253 0 261 23 9 27 8 190 -2 206
-4 6 -36 11 -76 11 -67 0 -84 7 -107 43 -5 7 -17 17 -28 23 -15 8 -21 23 -23
58 -3 38 -8 49 -26 58 -13 5 -30 21 -37 34 -6 13 -20 26 -29 29 -9 3 -23 17
-30 30 -7 14 -17 25 -21 25 -38 0 -57 134 -23 162 20 17 45 42 62 62 8 10 28
16 52 16 31 0 42 5 51 23 16 31 28 37 71 37 31 0 40 5 53 30 9 17 22 30 31 30
39 0 40 104 0 119 -12 5 -28 21 -35 35 -14 26 -14 26 -241 26 -226 0 -226 0
-243 -30 -10 -16 -25 -30 -33 -30 -41 0 -39 -103 2 -122 45 -21 44 -95 -1
-116 -14 -6 -25 -16 -25 -21 0 -20 -33 -41 -63 -41 -24 0 -39 -8 -57 -30 -18
-22 -31 -29 -43 -25 -15 6 -17 40 -16 441 0 239 -3 439 -6 444 -4 6 -84 10
-206 10 -198 0 -200 0 -207 -22z M17825 10910 c-3 -5 -6 -295 -5 -644 0 -568
-1 -636 -15 -650 -14 -13 -43 -16 -176 -16 -156 0 -160 0 -167 -22 -9 -28 -8
-191 2 -207 10 -16 1062 -16 1072 0 10 16 11 179 2 207 -7 22 -9 22 -197 22
-160 0 -192 2 -206 16 -14 14 -15 82 -15 650 1 349 -2 639 -5 644 -4 6 -64 10
-145 10 -81 0 -141 -4 -145 -10z M12299 10478 c-16 -32 -28 -38 -71 -38 -28 0
-40 -5 -49 -22 -16 -32 -28 -38 -71 -38 -25 0 -40 -6 -47 -17 -23 -44 -89
-103 -106 -97 -15 6 -17 16 -11 65 11 112 17 109 -212 109 -199 0 -199 0 -213
-26 -7 -14 -23 -30 -35 -35 -40 -15 -39 -119 0 -119 9 0 22 -13 31 -30 13 -26
21 -30 55 -30 24 0 44 -6 52 -16 17 -20 42 -45 62 -62 24 -19 24 -483 0 -506
-12 -12 -38 -16 -115 -16 -94 0 -100 -1 -107 -22 -9 -28 -8 -191 2 -207 5 -8
138 -11 477 -11 469 0 469 0 477 23 6 19 7 59 3 130 -1 9 -12 22 -25 28 -13 6
-30 22 -37 35 -12 24 -14 24 -170 24 -130 0 -160 3 -173 16 -21 20 -24 432 -4
452 7 7 31 12 55 12 37 0 45 4 55 25 6 13 19 27 30 30 10 4 18 10 18 14 0 4 9
17 20 29 19 20 30 22 140 22 120 0 120 0 147 -30 20 -23 35 -30 62 -30 28 0
43 7 63 30 21 24 34 30 67 30 55 0 60 16 52 153 -1 9 -12 22 -25 28 -13 6 -29
22 -35 35 -8 19 -18 24 -48 24 -44 0 -55 6 -72 38 -11 21 -18 22 -121 22 -103
0 -110 -1 -121 -22z M13330 10492 c0 -5 -9 -18 -20 -30 -17 -18 -32 -22 -89
-22 -62 0 -69 -2 -81 -25 -7 -13 -21 -27 -30 -30 -9 -3 -23 -16 -30 -30 -7
-14 -21 -27 -30 -30 -9 -3 -23 -16 -30 -30 -7 -14 -21 -27 -30 -30 -9 -3 -23
-16 -30 -30 -7 -14 -22 -27 -32 -31 -27 -8 -38 -45 -31 -102 6 -50 3 -55 -41
-86 -17 -11 -19 -26 -19 -116 0 -90 2 -105 19 -116 44 -31 47 -36 41 -86 -7
-57 4 -94 31 -102 10 -4 25 -17 32 -31 7 -14 21 -27 30 -30 9 -3 23 -16 30
-30 7 -14 21 -27 30 -30 9 -3 22 -17 28 -30 9 -20 19 -25 49 -25 44 0 55 -6
72 -37 12 -23 12 -23 301 -23 289 0 289 0 301 23 17 31 28 37 72 37 30 0 40 5
49 25 11 25 26 32 83 37 28 3 30 6 33 51 3 39 8 50 26 59 13 5 29 20 36 33 7
13 23 28 36 34 13 6 24 17 24 26 1 8 1 105 1 215 0 110 0 207 -1 214 0 8 -12
21 -27 28 -24 11 -28 20 -31 61 -3 39 -8 50 -26 59 -13 5 -30 21 -37 34 -6 13
-20 26 -29 29 -9 3 -22 17 -28 30 -9 20 -19 25 -49 25 -44 0 -55 6 -72 38 -10
20 -19 22 -81 22 -58 0 -72 3 -90 22 -11 12 -20 25 -20 30 0 4 -76 8 -170 8
-93 0 -170 -4 -170 -8z m326 -300 c6 -4 16 -17 23 -29 9 -18 20 -23 54 -23 54
0 67 -13 67 -67 0 -34 5 -45 23 -54 32 -17 37 -28 37 -89 0 -61 -5 -72 -37
-89 -19 -9 -23 -20 -23 -57 0 -37 -4 -46 -24 -55 -13 -6 -30 -22 -37 -35 -6
-13 -20 -26 -31 -30 -10 -3 -18 -9 -18 -13 0 -4 -9 -17 -20 -29 -19 -20 -30
-22 -138 -22 -124 0 -132 2 -151 38 -9 17 -20 22 -54 22 -54 0 -67 13 -67 67
0 34 -5 45 -22 54 -36 19 -38 27 -38 151 0 95 3 120 16 130 8 7 23 21 32 32
17 19 31 32 54 52 7 6 21 21 30 33 17 20 27 21 165 21 82 0 153 -4 159 -8z
M14890 10492 c0 -5 -9 -18 -20 -30 -18 -19 -32 -22 -90 -22 -62 0 -71 -2 -81
-22 -17 -32 -28 -38 -72 -38 -30 0 -40 -5 -49 -25 -6 -13 -19 -27 -28 -30 -9
-3 -23 -16 -29 -29 -7 -13 -24 -29 -37 -34 -18 -9 -23 -20 -26 -59 -3 -41 -7
-50 -30 -61 -16 -7 -28 -20 -28 -28 -1 -7 -1 -104 -1 -214 0 -110 0 -207 1
-214 0 -8 12 -21 28 -28 23 -11 27 -20 30 -61 3 -39 8 -50 26 -59 13 -5 29
-21 35 -34 8 -19 18 -24 50 -24 37 0 71 -19 71 -41 0 -5 11 -14 24 -20 13 -6
30 -22 37 -35 12 -24 12 -24 330 -24 318 0 318 0 330 23 17 31 28 37 72 37 30
0 40 5 49 25 6 13 19 27 28 30 9 3 23 16 29 29 7 13 24 29 37 34 18 9 23 20
26 59 2 39 7 50 28 60 20 10 26 22 30 60 4 40 10 50 33 61 30 14 29 11 29 136
1 76 -2 91 -18 102 -44 31 -47 36 -41 86 7 57 -4 94 -31 102 -10 4 -25 17 -32
31 -7 14 -21 27 -30 30 -9 3 -23 16 -30 30 -7 14 -21 27 -30 30 -9 3 -22 17
-28 30 -9 20 -19 25 -49 25 -44 0 -55 6 -72 38 -10 20 -19 22 -81 22 -58 0
-72 3 -90 22 -11 12 -20 25 -20 30 0 4 -63 8 -140 8 -77 0 -140 -4 -140 -8z
m338 -313 c9 -12 23 -27 30 -33 7 -6 21 -19 30 -30 19 -20 34 -35 57 -54 12
-10 15 -37 15 -130 0 -124 -2 -132 -37 -151 -18 -9 -23 -20 -23 -54 0 -54 -13
-67 -67 -67 -34 0 -45 -5 -54 -22 -19 -36 -27 -38 -152 -38 -107 0 -119 2
-135 21 -9 12 -23 27 -30 33 -7 6 -21 19 -30 30 -9 10 -23 24 -30 30 -23 20
-37 33 -54 52 -9 11 -24 25 -32 32 -12 10 -16 33 -16 100 0 93 3 103 37 121
17 8 23 22 25 58 2 34 8 49 23 57 11 6 23 16 28 23 27 42 33 43 218 43 171 0
180 -1 197 -21z M20999 10478 c-17 -32 -28 -38 -72 -38 -30 0 -40 -5 -49 -25
-6 -14 -22 -28 -35 -31 -36 -9 -68 3 -81 31 -12 25 -12 25 -180 25 -169 0
-169 0 -183 -26 -7 -14 -23 -30 -35 -35 -40 -15 -39 -119 0 -119 9 0 22 -13
31 -30 14 -26 21 -30 58 -30 24 0 48 -5 55 -12 9 -9 12 -87 12 -288 0 -201 -3
-279 -12 -288 -7 -7 -31 -12 -55 -12 -37 0 -44 -4 -58 -30 -9 -16 -22 -30 -31
-30 -39 0 -40 -104 0 -119 12 -5 28 -21 35 -35 14 -26 14 -26 272 -26 236 0
259 2 268 18 10 19 8 193 -3 211 -4 6 -26 11 -50 11 -23 0 -47 5 -54 12 -20
20 -17 493 4 510 8 7 23 21 32 32 9 10 23 24 30 32 20 21 245 20 266 -2 24
-23 24 -547 0 -566 -8 -7 -23 -21 -32 -32 -9 -10 -23 -24 -30 -30 -49 -41 -50
-44 -50 -103 1 -100 -22 -93 309 -93 333 0 306 -9 303 104 -1 46 -6 63 -20 72
-23 16 -34 26 -56 50 -9 11 -24 25 -33 32 -14 12 -16 41 -14 230 2 201 0 216
-17 228 -45 31 -46 35 -44 118 3 112 3 115 -24 127 -13 6 -30 22 -37 35 -6 13
-20 26 -29 29 -9 3 -22 17 -28 30 -9 20 -19 25 -49 25 -44 0 -55 6 -72 38 -11
21 -18 22 -121 22 -103 0 -110 -1 -121 -22z M22330 10492 c0 -5 -9 -18 -20
-30 -17 -18 -32 -22 -89 -22 -61 0 -69 -2 -80 -24 -7 -13 -24 -29 -36 -34 -13
-6 -26 -20 -30 -31 -6 -21 -24 -28 -80 -33 -28 -3 -30 -6 -35 -53 -4 -40 -10
-52 -30 -62 -20 -10 -26 -22 -30 -60 -4 -40 -10 -50 -32 -61 -16 -7 -28 -20
-29 -28 0 -7 0 -77 0 -154 0 -77 0 -147 0 -154 1 -8 13 -21 29 -28 23 -11 27
-20 30 -61 3 -39 8 -50 26 -59 13 -5 30 -21 37 -34 6 -13 20 -26 29 -29 9 -3
23 -16 30 -30 7 -14 21 -27 30 -30 9 -3 22 -17 28 -30 9 -20 19 -25 49 -25 44
0 55 -6 72 -37 12 -23 12 -23 331 -23 319 0 319 0 331 23 17 31 28 37 72 37
30 0 40 5 49 25 6 13 18 27 27 30 9 3 25 18 34 35 10 16 25 30 33 30 39 0 40
104 0 119 -12 5 -28 21 -35 35 -13 23 -21 26 -63 26 -26 0 -48 -4 -48 -8 0 -5
-9 -18 -20 -30 -18 -19 -32 -22 -90 -22 -39 0 -70 -4 -70 -8 0 -5 -9 -18 -20
-30 -20 -21 -28 -22 -200 -22 -172 0 -181 1 -198 21 -9 12 -23 27 -30 33 -7 6
-18 17 -25 24 -28 31 -47 49 -91 88 -85 74 -94 72 402 73 403 1 438 3 449 19
16 22 24 30 47 46 16 11 18 26 18 132 0 65 -1 127 -1 137 -1 9 -12 22 -25 28
-13 6 -30 22 -37 35 -6 13 -20 26 -29 29 -9 3 -23 16 -30 30 -7 14 -21 27 -30
30 -9 3 -23 16 -30 30 -7 14 -21 27 -30 30 -9 3 -23 17 -30 30 -12 23 -19 25
-81 25 -57 0 -72 4 -89 22 -11 12 -20 25 -20 30 0 4 -76 8 -170 8 -93 0 -170
-4 -170 -8z m326 -300 c6 -4 16 -17 23 -29 9 -18 20 -23 51 -23 46 0 70 -21
70 -60 0 -57 -5 -58 -299 -59 -234 -1 -271 1 -285 14 -20 21 -21 70 0 87 20
17 45 42 62 62 11 14 41 16 190 16 97 0 182 -4 188 -8z M19137 10410 c-10 -16
-25 -30 -33 -30 -39 0 -40 -104 0 -119 12 -5 28 -21 35 -35 14 -25 17 -26 112
-26 75 0 101 -4 113 -16 24 -23 24 -545 0 -568 -13 -13 -43 -16 -173 -16 -158
0 -158 0 -172 -26 -7 -14 -23 -30 -35 -35 -40 -15 -39 -119 0 -119 8 0 23 -13
33 -30 17 -30 17 -30 545 -30 528 0 528 0 536 23 6 19 7 59 3 130 -1 9 -12 22
-25 28 -13 6 -30 22 -37 35 -12 24 -14 24 -170 24 -131 0 -160 3 -174 16 -14
14 -16 60 -15 410 1 216 -1 398 -5 404 -4 6 -96 10 -263 10 -258 0 -258 0
-275 -30z M16441 8736 c-7 -13 -24 -29 -37 -35 -13 -6 -24 -19 -25 -28 0 -10
-1 -72 -1 -138 0 -104 2 -121 17 -130 10 -5 29 -22 43 -37 19 -21 35 -28 62
-28 27 0 44 7 63 28 14 15 32 32 39 38 7 6 20 20 29 30 9 11 24 24 34 29 13 8
17 24 17 70 0 92 0 93 -29 107 -24 11 -29 21 -33 63 -5 50 -5 50 -86 53 -76 3
-81 2 -93 -22z M10263 8557 c-10 -13 -28 -29 -40 -35 -17 -9 -23 -23 -25 -59
-2 -39 -7 -50 -28 -60 -13 -7 -27 -19 -30 -28 -10 -29 -3 -139 8 -143 7 -2 22
-12 34 -22 23 -18 23 -18 -27 -64 -48 -45 -51 -46 -115 -46 -62 0 -67 -2 -83
-30 -10 -16 -25 -30 -33 -30 -39 0 -40 -104 0 -119 12 -5 28 -21 35 -35 13
-24 19 -26 80 -26 65 0 68 -1 116 -46 50 -46 50 -46 27 -64 -12 -10 -27 -20
-34 -22 -7 -3 -11 -39 -11 -107 0 -91 2 -106 19 -117 46 -32 46 -33 44 -148
-3 -148 -3 -145 24 -157 13 -6 29 -22 35 -35 8 -19 18 -24 48 -24 44 0 55 -6
72 -37 12 -23 12 -23 271 -23 259 0 259 0 271 23 16 31 28 37 71 37 28 0 40 5
49 23 17 31 28 37 72 37 50 0 56 18 48 153 -1 9 -12 22 -25 28 -13 6 -30 22
-37 35 -11 22 -18 24 -91 24 -43 0 -78 -4 -78 -8 0 -5 -9 -18 -20 -30 -18 -19
-32 -22 -90 -22 -39 0 -70 -4 -70 -8 0 -5 -9 -18 -20 -30 -30 -31 -132 -32
-158 -1 -18 22 -31 35 -57 57 -23 19 -22 423 1 446 13 14 49 16 235 16 219 0
220 0 227 23 9 27 8 190 -2 206 -5 8 -74 11 -226 11 -189 0 -221 2 -235 16
-14 14 -16 40 -14 172 2 142 1 157 -16 166 -10 6 -25 19 -34 30 -9 10 -22 24
-29 30 -7 6 -25 23 -39 39 -35 36 -93 38 -120 4z M11819 8198 c-16 -32 -28
-38 -71 -38 -28 0 -40 -5 -49 -22 -17 -32 -28 -38 -72 -38 -30 0 -40 -5 -49
-25 -6 -13 -19 -27 -28 -30 -9 -3 -23 -16 -29 -29 -7 -13 -24 -29 -37 -34 -18
-9 -23 -20 -26 -59 -3 -41 -7 -50 -30 -61 -16 -7 -28 -20 -29 -28 0 -7 0 -90
0 -184 0 -93 0 -177 0 -184 1 -8 13 -21 29 -28 23 -11 27 -20 30 -61 3 -39 8
-50 26 -59 13 -5 30 -21 37 -34 6 -13 20 -26 29 -29 9 -3 23 -16 30 -30 7 -14
21 -27 30 -30 9 -3 23 -17 30 -30 12 -23 19 -25 81 -25 57 0 72 -4 89 -22 11
-12 20 -25 20 -30 0 -4 117 -8 260 -8 143 0 260 4 260 8 0 5 9 18 20 30 17 18
32 22 89 22 62 0 69 2 81 25 7 13 21 27 29 30 9 3 25 18 34 35 10 16 25 30 33
30 39 0 40 104 0 119 -12 5 -28 21 -35 35 -14 25 -19 26 -93 26 -43 0 -78 -4
-78 -8 0 -5 -9 -18 -20 -30 -18 -19 -32 -22 -90 -22 -39 0 -70 -4 -70 -8 0 -5
-9 -18 -20 -30 -19 -20 -30 -22 -138 -22 -124 0 -132 2 -151 38 -9 17 -20 22
-51 22 -29 0 -45 6 -58 21 -19 24 -18 23 -85 83 -46 42 -56 76 -23 76 7 0 25
14 39 30 27 30 27 30 456 30 299 0 432 3 437 11 5 9 8 182 5 262 -1 9 -12 22
-25 28 -13 6 -30 22 -37 35 -6 13 -20 26 -29 29 -9 3 -23 16 -30 30 -7 14 -21
27 -30 30 -9 3 -23 16 -30 30 -7 14 -21 27 -30 30 -9 3 -22 17 -28 30 -9 20
-19 25 -49 25 -44 0 -55 6 -72 38 -12 22 -13 22 -241 22 -228 0 -229 0 -241
-22z m337 -226 c6 -4 16 -17 23 -29 9 -18 20 -23 49 -23 30 0 47 -8 86 -45 79
-73 77 -73 -284 -73 -359 -1 -362 0 -289 70 43 41 46 42 112 43 57 0 71 3 82
20 31 44 35 45 123 45 48 0 92 -4 98 -8z M13450 8213 c0 -5 -23 -33 -51 -63
-50 -55 -50 -55 -77 -22 -27 32 -27 32 -213 32 -186 0 -186 0 -228 -39 -45
-42 -50 -66 -16 -85 11 -6 22 -12 25 -14 2 -2 7 -24 10 -50 5 -47 5 -47 50
-50 24 -2 50 -8 57 -14 18 -15 19 -558 1 -576 -7 -7 -31 -12 -55 -12 -36 0
-45 -4 -51 -22 -9 -28 -8 -191 2 -207 5 -8 84 -11 265 -11 258 0 258 0 271 25
7 14 24 32 37 40 33 22 33 88 0 110 -13 8 -29 26 -35 40 -10 21 -18 25 -55 25
-67 0 -67 -1 -67 235 0 219 1 225 38 244 17 9 22 20 22 54 0 54 13 67 67 67
37 0 45 4 55 25 20 44 100 46 113 4 4 -11 17 -25 30 -31 12 -5 29 -21 36 -34
7 -13 16 -24 20 -24 4 0 15 -7 23 -16 21 -20 24 -492 4 -512 -7 -7 -31 -12
-55 -12 -37 0 -45 -4 -55 -25 -6 -14 -22 -32 -35 -40 -33 -22 -33 -88 0 -110
13 -8 30 -26 37 -40 13 -25 13 -25 272 -25 301 0 275 -13 272 131 -1 105 -4
109 -58 109 -25 0 -48 6 -55 14 -9 10 -12 92 -10 292 1 261 0 278 -17 290 -44
31 -47 36 -41 86 7 57 -4 94 -31 102 -10 4 -24 18 -30 31 -9 20 -19 25 -49 25
-44 0 -55 6 -72 38 -11 21 -16 22 -181 22 -94 0 -170 -3 -170 -7z M14999 8198
c-16 -30 -28 -38 -64 -38 -22 0 -38 -9 -57 -32 -28 -33 -28 -33 -55 0 -28 32
-28 32 -221 32 -222 0 -209 6 -206 -104 1 -46 6 -63 20 -72 23 -16 34 -26 56
-50 9 -11 24 -25 32 -32 21 -17 24 -550 4 -570 -7 -7 -31 -12 -55 -12 -36 0
-45 -4 -51 -22 -9 -28 -8 -191 2 -207 5 -8 84 -11 265 -11 258 0 258 0 272 26
7 14 24 30 36 35 12 4 25 20 29 34 9 37 -4 75 -29 84 -12 5 -29 20 -36 35 -8
14 -22 28 -31 31 -9 3 -23 17 -30 30 -7 14 -17 25 -21 25 -4 0 -15 7 -23 16
-13 13 -16 42 -16 162 0 155 2 162 38 181 18 9 22 20 22 57 0 37 4 46 24 55
13 6 29 21 36 34 7 13 23 28 35 33 13 6 26 20 30 31 7 24 44 36 79 27 14 -3
28 -15 31 -27 4 -11 17 -25 30 -31 12 -5 29 -21 36 -34 7 -13 16 -24 20 -24 4
0 15 -7 23 -16 21 -20 24 -492 4 -512 -7 -7 -31 -12 -55 -12 -36 0 -45 -4 -51
-22 -10 -28 -8 -190 2 -206 5 -9 79 -12 265 -12 258 0 258 0 272 26 7 14 23
30 35 35 40 15 39 119 0 119 -9 0 -22 14 -31 30 -14 26 -21 30 -59 30 -25 0
-48 6 -55 14 -9 10 -12 96 -11 308 1 161 1 301 1 310 -1 9 -13 23 -28 30 -24
11 -28 20 -31 61 -3 39 -8 50 -26 59 -13 5 -30 21 -37 34 -6 13 -20 26 -29 29
-9 3 -23 17 -30 30 -13 25 -13 25 -181 25 -164 0 -169 -1 -180 -22z M17699
8198 c-17 -32 -28 -38 -72 -38 -30 0 -40 -5 -49 -25 -6 -13 -19 -27 -28 -30
-9 -3 -23 -16 -29 -29 -7 -13 -24 -29 -37 -35 -13 -6 -24 -17 -25 -26 0 -8 0
-64 0 -125 0 -60 0 -117 0 -124 1 -8 13 -21 29 -28 23 -11 28 -21 32 -63 5
-50 5 -50 52 -55 35 -4 52 -12 68 -33 21 -27 23 -27 145 -27 115 0 126 -2 145
-22 11 -12 20 -25 20 -30 0 -4 45 -8 100 -8 78 0 102 -3 112 -16 7 -8 21 -23
30 -32 9 -9 24 -23 32 -30 21 -17 21 -66 0 -86 -13 -13 -45 -16 -192 -16 -186
0 -192 1 -211 38 -9 18 -20 22 -55 22 -51 0 -67 15 -64 58 4 54 -13 62 -128
62 -61 0 -105 -4 -109 -11 -4 -5 -7 -95 -7 -199 0 -104 3 -194 7 -199 3 -6 39
-11 78 -11 69 0 73 1 100 32 27 33 27 33 55 0 27 -32 27 -32 309 -32 282 0
282 0 294 23 17 31 28 37 72 37 30 0 40 5 49 25 6 13 19 27 28 30 9 3 23 16
29 29 7 13 24 29 37 35 13 6 24 19 25 28 0 10 0 85 1 167 0 135 -2 151 -19
163 -22 15 -33 25 -55 49 -9 11 -22 24 -28 29 -6 6 -17 19 -25 30 -11 17 -25
20 -84 20 -58 0 -73 3 -85 20 -9 11 -16 23 -16 28 0 4 -85 7 -190 7 -160 0
-191 2 -202 16 -17 20 -42 45 -62 62 -21 17 -21 66 0 86 13 13 42 16 162 16
155 0 162 -2 181 -37 9 -18 20 -23 51 -23 37 0 80 -28 80 -52 0 -13 218 -10
226 3 3 6 7 70 7 142 0 115 -3 133 -18 142 -10 5 -29 22 -43 38 -35 38 -102
39 -122 2 -25 -46 -97 -46 -118 0 -12 25 -12 25 -241 25 -229 0 -230 0 -242
-22z M16137 8130 c-10 -16 -25 -30 -33 -30 -39 0 -40 -104 0 -119 12 -5 28
-21 35 -35 14 -25 17 -26 112 -26 75 0 101 -4 113 -16 24 -23 24 -545 0 -568
-13 -13 -43 -16 -173 -16 -158 0 -158 0 -172 -26 -7 -14 -23 -30 -35 -35 -40
-15 -39 -119 0 -119 8 0 23 -13 33 -30 17 -30 17 -30 545 -30 528 0 528 0 536
23 9 27 8 190 -2 206 -5 7 -66 11 -196 11 -160 0 -191 2 -205 16 -14 14 -16
60 -15 410 1 216 -1 398 -5 404 -4 6 -96 10 -263 10 -258 0 -258 0 -275 -30z
M15001 6336 c-7 -13 -24 -29 -37 -35 -13 -6 -24 -19 -25 -28 -10 -160 -16
-153 140 -153 168 0 161 7 160 -160 -1 -110 -3 -129 -17 -135 -11 -4 -25 4
-42 25 -18 21 -34 30 -55 30 -36 0 -48 8 -64 38 -11 21 -18 22 -121 22 -61 0
-110 -4 -110 -8 0 -5 -9 -18 -20 -30 -17 -18 -32 -22 -89 -22 -62 0 -69 -2
-81 -25 -7 -13 -21 -27 -30 -30 -9 -3 -23 -16 -30 -30 -7 -14 -21 -27 -30 -30
-9 -3 -23 -16 -29 -29 -7 -13 -24 -29 -37 -34 -18 -9 -23 -20 -26 -59 -3 -41
-7 -50 -30 -61 -16 -7 -28 -20 -28 -28 -1 -7 -1 -104 -1 -214 0 -110 0 -207 1
-214 0 -8 12 -21 28 -28 23 -11 27 -20 30 -61 3 -39 8 -50 26 -59 13 -5 30
-21 37 -34 6 -13 20 -26 29 -29 9 -3 22 -17 28 -30 9 -20 19 -25 49 -25 44 0
55 -6 72 -37 12 -23 13 -23 242 -23 229 0 229 0 241 25 6 14 22 28 35 31 36 9
68 -3 81 -31 12 -25 12 -25 212 -25 238 0 221 -12 211 153 -1 9 -12 22 -25 28
-13 6 -29 22 -35 35 -9 20 -18 24 -55 24 -25 0 -48 6 -55 14 -8 10 -11 184
-11 650 1 350 -2 641 -5 646 -4 6 -104 10 -264 10 -258 0 -258 0 -270 -24z
m107 -717 c9 -12 23 -27 30 -33 7 -6 21 -19 30 -30 19 -20 34 -35 57 -54 22
-19 22 -305 0 -324 -23 -19 -38 -34 -57 -54 -9 -11 -23 -24 -30 -30 -7 -6 -21
-21 -30 -33 -16 -18 -28 -21 -105 -21 -95 0 -104 3 -122 38 -9 18 -20 22 -55
22 -58 0 -67 13 -64 94 3 58 0 70 -17 81 -42 29 -45 36 -45 93 0 63 5 74 37
91 17 8 23 22 25 58 2 34 8 49 23 57 11 6 23 16 28 23 25 40 37 43 158 43 109
0 121 -2 137 -21z M10390 5932 c0 -5 -9 -18 -20 -30 -19 -20 -31 -22 -120 -22
-93 0 -100 -1 -111 -22 -17 -32 -28 -38 -72 -38 -31 0 -39 -4 -48 -27 -14 -37
-2 -82 25 -92 12 -5 28 -21 35 -35 14 -26 14 -26 152 -26 133 0 139 1 150 23
19 35 27 37 151 37 95 0 120 -3 130 -16 17 -20 42 -45 62 -62 21 -17 21 -66 0
-86 -13 -14 -49 -16 -234 -16 -217 0 -219 0 -231 -22 -18 -34 -28 -38 -100
-38 -60 0 -67 -2 -79 -25 -7 -13 -21 -27 -30 -30 -9 -3 -23 -16 -29 -29 -7
-13 -24 -29 -37 -35 -13 -6 -24 -17 -25 -26 0 -8 0 -91 0 -185 0 -93 0 -177 0
-185 1 -9 12 -20 25 -26 13 -6 30 -22 37 -35 6 -13 20 -26 29 -29 9 -3 23 -17
30 -30 13 -25 13 -25 302 -25 288 0 288 0 300 25 21 46 95 46 116 0 12 -25 12
-25 180 -25 169 0 169 0 183 26 7 14 23 30 35 35 40 15 39 119 0 119 -9 0 -22
14 -31 30 -14 26 -21 30 -59 30 -25 0 -48 6 -55 14 -9 10 -12 104 -11 338 1
177 1 331 1 341 -1 9 -12 22 -25 28 -13 6 -30 22 -37 35 -6 13 -20 26 -29 29
-9 3 -23 17 -30 30 -12 23 -19 25 -81 25 -57 0 -72 4 -89 22 -11 12 -20 25
-20 30 0 4 -76 8 -170 8 -93 0 -170 -4 -170 -8z m272 -606 c7 -8 21 -22 30
-32 9 -11 24 -25 32 -32 22 -18 22 -126 1 -144 -26 -22 -39 -35 -57 -57 -17
-20 -27 -21 -168 -21 -123 0 -151 3 -162 16 -17 20 -42 45 -62 62 -9 7 -16 26
-16 42 0 16 7 35 16 42 20 17 45 42 62 62 8 10 28 16 52 16 31 0 42 5 51 23
18 34 27 37 121 37 61 0 90 -4 100 -14z M11890 5932 c0 -5 -9 -18 -20 -30 -17
-18 -32 -22 -89 -22 -62 0 -69 -2 -81 -25 -7 -13 -21 -27 -30 -30 -9 -3 -23
-16 -30 -30 -7 -14 -21 -27 -30 -30 -9 -3 -23 -16 -30 -30 -7 -14 -21 -27 -30
-30 -9 -3 -23 -16 -29 -29 -7 -13 -24 -29 -37 -34 -18 -9 -23 -20 -26 -59 -3
-41 -7 -50 -30 -61 -16 -7 -28 -20 -29 -28 0 -7 0 -77 0 -154 0 -77 0 -147 0
-154 1 -8 13 -21 29 -28 23 -11 27 -20 30 -61 3 -39 8 -50 26 -59 13 -5 30
-21 37 -34 6 -13 20 -26 29 -29 9 -3 23 -16 30 -30 7 -14 21 -27 30 -30 9 -3
22 -17 28 -30 9 -20 19 -25 49 -25 44 0 55 -6 72 -37 12 -23 12 -23 331 -23
319 0 319 0 331 23 17 31 28 37 72 37 30 0 40 5 49 25 6 13 18 27 27 30 9 3
25 18 34 35 10 16 25 30 33 30 39 0 40 104 0 119 -12 5 -28 21 -35 35 -14 25
-19 26 -92 26 -71 0 -79 -2 -90 -22 -16 -32 -28 -38 -71 -38 -28 0 -40 -5 -49
-22 -19 -37 -25 -38 -212 -38 -169 0 -178 1 -195 21 -9 12 -23 27 -30 33 -23
20 -37 33 -54 52 -9 11 -24 25 -32 32 -23 19 -24 305 -1 324 23 19 38 34 57
54 9 11 23 24 30 30 7 6 21 21 30 33 17 20 26 21 197 21 185 0 191 -1 218 -43
5 -7 17 -17 28 -23 15 -8 21 -23 23 -58 3 -38 8 -49 26 -58 13 -5 30 -21 37
-34 11 -22 18 -24 89 -24 71 0 78 2 89 24 7 13 24 29 37 35 13 6 24 19 25 28
0 10 0 99 0 198 1 160 -1 181 -17 190 -9 5 -28 22 -42 38 -45 49 -88 39 -156
-35 -57 -63 -57 -63 -84 -30 -25 30 -31 32 -89 32 -51 0 -66 4 -83 22 -11 12
-20 25 -20 30 0 4 -63 8 -140 8 -77 0 -140 -4 -140 -8z M13330 5932 c0 -5 -9
-18 -20 -30 -19 -20 -31 -22 -119 -22 -93 0 -98 -1 -110 -24 -7 -13 -24 -29
-37 -35 -13 -6 -24 -19 -25 -28 -10 -161 -17 -153 150 -153 135 0 141 1 152
23 19 35 27 37 151 37 95 0 120 -3 130 -16 22 -26 43 -47 92 -90 80 -70 74
-72 -222 -73 -232 -1 -258 -3 -269 -19 -26 -37 -35 -42 -74 -42 -32 0 -41 -4
-51 -25 -11 -25 -26 -32 -83 -37 -28 -3 -30 -6 -35 -53 -4 -42 -9 -52 -32 -63
-16 -7 -28 -20 -29 -28 0 -7 0 -63 0 -124 0 -60 0 -117 0 -124 1 -8 13 -21 29
-28 23 -11 28 -21 32 -63 5 -47 7 -50 35 -53 57 -5 72 -12 83 -37 12 -25 12
-25 272 -25 143 0 260 4 260 8 0 51 138 74 180 30 11 -12 20 -25 20 -30 0 -4
77 -8 170 -8 196 0 187 -5 184 104 -1 46 -6 63 -20 72 -23 16 -34 26 -56 50
-9 11 -24 25 -33 32 -14 12 -16 45 -15 275 1 144 1 270 1 279 -1 9 -13 23 -28
30 -24 11 -28 20 -31 61 -3 39 -8 50 -26 59 -13 5 -30 21 -37 34 -6 13 -20 26
-29 29 -9 3 -23 17 -30 30 -12 23 -19 25 -81 25 -57 0 -72 4 -89 22 -11 12
-20 25 -20 30 0 4 -76 8 -170 8 -93 0 -170 -4 -170 -8z m332 -606 c7 -8 21
-22 30 -32 9 -11 24 -25 32 -32 21 -17 22 -125 1 -144 -8 -7 -20 -18 -27 -24
-7 -6 -21 -21 -30 -33 -17 -20 -26 -21 -197 -21 -220 0 -211 -5 -211 124 0
106 6 116 67 116 34 0 45 5 54 23 19 35 27 37 151 37 87 0 120 -4 130 -14z
M16390 5932 c0 -5 -9 -18 -20 -30 -18 -19 -32 -22 -90 -22 -62 0 -71 -2 -81
-22 -17 -32 -28 -38 -72 -38 -30 0 -40 -5 -49 -25 -6 -13 -19 -27 -28 -30 -9
-3 -23 -16 -29 -29 -7 -13 -24 -29 -37 -34 -18 -9 -23 -20 -26 -59 -3 -41 -7
-50 -30 -61 -16 -7 -28 -20 -28 -28 -1 -7 -1 -104 -1 -214 0 -110 0 -207 1
-214 0 -8 12 -21 28 -28 23 -11 27 -20 30 -61 3 -39 8 -50 26 -59 13 -5 29
-21 35 -34 8 -19 18 -24 50 -24 37 0 71 -19 71 -41 0 -5 11 -14 24 -20 13 -6
30 -22 37 -35 12 -24 12 -24 360 -24 348 0 348 0 360 23 17 31 28 37 72 37 30
0 40 5 49 25 6 14 15 25 20 25 4 0 16 8 26 18 16 16 18 32 15 113 -1 52 -5
100 -8 107 -5 15 -105 17 -105 2 0 -31 -41 -50 -110 -50 -38 0 -70 -4 -70 -8
0 -5 -9 -18 -20 -30 -20 -21 -28 -22 -198 -22 -186 0 -192 1 -211 38 -9 17
-20 22 -51 22 -24 0 -44 6 -52 16 -17 20 -42 45 -62 62 -21 17 -21 66 0 86 14
14 68 16 445 16 429 0 429 0 440 24 6 13 22 29 35 35 27 12 26 9 26 121 0 44
-1 87 -1 94 -1 8 -13 21 -28 28 -24 11 -28 20 -31 61 -3 39 -8 50 -26 59 -13
5 -30 21 -37 34 -6 13 -20 26 -29 29 -9 3 -22 17 -28 30 -9 20 -19 25 -49 25
-44 0 -55 6 -72 38 -10 20 -19 22 -81 22 -58 0 -72 3 -90 22 -11 12 -20 25
-20 30 0 4 -63 8 -140 8 -77 0 -140 -4 -140 -8z m332 -308 c17 -20 42 -45 62
-62 21 -17 20 -66 0 -87 -14 -13 -51 -15 -285 -14 -294 1 -299 2 -299 59 0 39
24 60 70 60 31 0 42 5 51 23 19 36 25 37 211 37 149 0 179 -2 190 -16z M17760
5915 c-7 -13 -22 -27 -32 -31 -11 -3 -24 -17 -30 -30 -21 -45 -95 -45 -116 1
-12 25 -12 25 -150 25 -138 0 -138 0 -155 -30 -10 -16 -25 -30 -33 -30 -39 0
-40 -104 0 -119 12 -5 28 -21 35 -35 8 -14 18 -26 22 -26 4 0 15 -7 23 -16 24
-23 24 -547 0 -566 -8 -7 -23 -21 -32 -32 -9 -10 -23 -24 -30 -30 -51 -43 -51
-42 -47 -110 2 -36 7 -70 10 -76 4 -6 102 -10 265 -10 296 0 277 -6 278 93 0
59 -1 62 -50 103 -7 6 -21 20 -30 30 -9 11 -24 25 -32 32 -24 19 -24 485 0
504 20 17 45 42 62 62 7 9 26 16 42 16 16 0 35 -7 42 -16 17 -20 42 -45 63
-63 15 -12 16 -50 14 -375 -1 -200 1 -368 5 -374 5 -8 59 -12 176 -12 165 0
170 1 181 22 7 13 23 31 36 41 17 14 23 28 23 57 0 29 -6 43 -23 57 -13 10
-29 28 -36 41 -9 17 -20 22 -54 22 -67 0 -67 -1 -67 235 0 219 1 225 38 244
17 9 22 20 22 54 0 57 12 67 86 67 101 0 95 29 93 -425 0 -217 2 -398 6 -404
4 -7 75 -11 206 -11 230 0 216 -7 213 104 -1 46 -6 63 -20 72 -23 16 -34 26
-56 50 -9 11 -24 25 -33 32 -14 12 -16 48 -15 305 1 161 1 300 1 309 -1 9 -13
23 -28 30 -24 11 -28 20 -31 61 -3 39 -8 50 -26 59 -13 5 -29 21 -35 34 -8 19
-18 24 -48 24 -44 0 -55 6 -72 38 -11 20 -19 22 -91 22 -72 0 -80 -2 -91 -22
-16 -30 -28 -38 -64 -38 -22 0 -38 -9 -57 -32 -28 -33 -28 -33 -55 0 -20 23
-36 32 -58 32 -36 0 -48 8 -64 38 -11 20 -19 22 -90 22 -72 0 -79 -2 -91 -25z
M18899 5854 c-7 -14 -23 -30 -35 -35 -40 -15 -39 -119 0 -119 9 0 22 -13 31
-30 14 -26 21 -30 58 -30 54 0 67 -13 67 -67 0 -37 4 -45 25 -55 29 -13 40
-44 31 -92 -8 -43 4 -74 34 -89 20 -10 26 -22 30 -60 4 -38 10 -50 30 -60 20
-10 26 -22 30 -60 4 -38 10 -50 30 -60 21 -10 26 -21 28 -60 3 -40 7 -50 28
-59 29 -13 34 -33 31 -107 -1 -36 2 -56 10 -58 53 -18 64 -66 18 -77 -20 -5
-24 -13 -27 -53 -2 -34 -8 -49 -23 -57 -11 -6 -23 -16 -28 -23 -26 -40 -36
-43 -166 -43 -124 0 -128 -1 -140 -24 -7 -13 -24 -29 -37 -35 -13 -6 -24 -19
-25 -28 -8 -135 -2 -153 48 -153 44 0 55 -6 72 -37 12 -23 12 -23 301 -23 289
0 289 0 301 23 17 31 28 37 72 37 50 0 56 18 48 153 -1 9 -12 22 -25 28 -13 6
-29 22 -35 35 -8 19 -18 24 -50 24 -78 0 -102 83 -34 119 17 9 23 22 25 58 2
39 7 50 28 60 20 10 26 22 30 60 4 38 10 50 30 60 20 10 26 22 30 60 4 38 10
50 30 60 20 10 26 22 30 60 4 38 10 50 30 60 20 10 26 22 30 60 4 38 10 50 30
60 30 15 42 46 34 89 -9 48 1 79 30 92 21 9 25 19 28 59 2 39 7 50 27 60 14 6
31 23 38 37 11 21 21 26 52 26 30 0 46 8 80 39 45 42 50 66 16 85 -11 6 -22
12 -25 14 -2 2 -7 24 -10 50 -5 47 -5 47 -264 50 -156 1 -263 -1 -269 -7 -12
-12 -16 -177 -5 -208 6 -19 15 -23 47 -23 78 0 102 -83 34 -119 -17 -9 -23
-22 -25 -58 -2 -39 -7 -50 -28 -60 -20 -10 -26 -22 -30 -60 -4 -40 -10 -50
-32 -61 -25 -12 -28 -19 -28 -61 0 -70 -21 -74 -77 -14 -43 46 -44 50 -40 98
6 61 -1 82 -33 98 -21 10 -26 21 -28 60 -2 36 -8 49 -25 58 -29 16 -37 28 -37
61 0 38 25 58 71 58 32 0 41 4 47 23 9 27 8 190 -2 206 -5 8 -84 11 -265 11
-258 0 -258 0 -272 -26z"/></g></g>
  <g transform="scale(0.16666667)"><g transform="translate(0.000000,1296.000000) scale(0.100000,-0.100000)" fill="#F7F5EF"><path d="M1145 2450 c-7 -12 -7 -1168 0 -1180 4 -6 154 -10 384 -10 378 0 378
0 391 25 7 13 21 27 30 30 9 3 23 16 30 30 7 14 21 27 30 30 9 3 23 16 30 30
7 14 21 27 30 30 9 3 23 16 29 29 7 13 24 29 37 35 13 6 24 17 24 26 0 8 1
146 1 305 0 160 -1 297 -1 304 0 8 -12 21 -27 28 -24 11 -28 20 -31 61 -3 39
-8 50 -26 59 -13 5 -30 21 -37 34 -6 13 -20 26 -29 29 -9 3 -22 17 -28 30 -9
20 -19 25 -49 25 -44 0 -55 6 -72 38 -12 22 -12 22 -361 22 -211 0 -351 -4
-355 -10z m639 -245 c9 -9 19 -21 23 -28 5 -7 17 -17 28 -23 15 -8 21 -23 23
-57 2 -36 8 -50 25 -58 36 -19 37 -26 37 -209 0 -184 -1 -190 -37 -209 -18 -9
-23 -20 -23 -54 0 -54 -13 -67 -67 -67 -34 0 -45 -5 -54 -22 -19 -36 -27 -38
-151 -38 -93 0 -120 3 -132 16 -24 23 -24 725 0 748 23 23 305 23 328 1z
M2522 2438 c-13 -40 -6 -199 9 -209 8 -5 60 -9 117 -9 97 0 103 1 110 23 9 27
8 190 -2 206 -5 7 -46 11 -117 11 -105 0 -110 -1 -117 -22z M8344 2448 c-4 -6
-6 -80 -5 -163 2 -168 -3 -185 -57 -185 -33 0 -45 8 -61 38 -11 21 -18 22
-121 22 -103 0 -110 -1 -121 -22 -17 -32 -28 -38 -72 -38 -30 0 -40 -5 -48
-24 -6 -13 -22 -29 -35 -34 -18 -9 -23 -20 -26 -59 -3 -41 -7 -50 -30 -61 -16
-7 -28 -20 -28 -28 -1 -7 -1 -104 -1 -214 0 -110 0 -207 1 -215 0 -9 11 -20
24 -26 13 -6 30 -22 37 -35 6 -13 20 -26 29 -29 9 -3 23 -16 30 -30 7 -14 21
-27 30 -30 9 -3 22 -17 28 -30 10 -21 19 -25 53 -25 33 0 46 -6 67 -30 20 -23
35 -30 62 -30 27 0 42 7 62 30 19 22 35 30 60 30 25 0 40 8 61 32 27 33 27 33
55 0 27 -32 27 -32 159 -32 73 0 134 4 138 10 3 5 6 271 6 590 0 319 -3 585
-6 590 -9 15 -282 13 -291 -2z m-82 -542 c7 -8 21 -22 30 -32 9 -11 24 -25 32
-32 24 -19 24 -305 0 -324 -8 -7 -23 -21 -32 -32 -9 -10 -23 -24 -30 -32 -17
-18 -192 -20 -210 -2 -7 7 -12 31 -12 55 0 34 -5 45 -22 54 -35 18 -38 27 -38
119 0 92 3 101 38 119 17 9 22 20 22 54 0 24 5 48 12 55 18 18 193 16 210 -2z
M9545 2450 c-7 -12 -7 -1168 0 -1180 4 -6 52 -10 108 -10 102 0 102 0 130 32
27 33 27 33 55 0 19 -23 35 -32 57 -32 36 0 48 -8 64 -38 11 -20 19 -22 91
-22 72 0 80 2 91 22 17 32 28 38 72 38 30 0 40 5 49 25 6 13 19 27 28 30 9 3
23 16 29 29 7 13 24 29 37 35 27 12 28 17 24 118 -2 86 5 111 35 123 41 16 41
120 1 120 -26 0 -38 40 -36 119 4 106 3 110 -24 122 -13 6 -30 22 -37 35 -6
13 -20 26 -29 29 -9 3 -22 17 -28 30 -9 20 -19 25 -49 25 -44 0 -55 6 -72 38
-11 20 -19 22 -91 22 -72 0 -80 -2 -91 -22 -16 -30 -28 -38 -64 -38 -21 0 -37
-9 -55 -30 -18 -22 -31 -29 -42 -25 -16 6 -17 27 -16 200 0 106 -2 198 -6 204
-9 14 -222 15 -231 1z m517 -544 c7 -8 21 -22 30 -32 9 -11 24 -25 32 -32 13
-11 16 -39 16 -162 0 -123 -3 -151 -16 -162 -8 -7 -23 -21 -32 -32 -9 -10 -23
-24 -30 -32 -17 -18 -192 -20 -210 -2 -7 7 -12 31 -12 55 0 34 -5 45 -22 54
-36 19 -38 27 -38 151 0 90 3 120 15 130 8 7 20 18 27 24 7 6 21 21 30 33 16
19 28 21 107 21 63 0 93 -4 103 -14z M12540 2435 c-7 -13 -21 -27 -30 -30 -9
-3 -23 -16 -30 -30 -7 -14 -21 -27 -30 -30 -9 -3 -23 -16 -29 -29 -7 -13 -24
-29 -37 -35 -13 -6 -24 -17 -25 -26 0 -8 0 -64 0 -125 0 -60 0 -117 0 -125 1
-9 12 -20 25 -26 13 -6 30 -22 37 -35 6 -13 20 -26 29 -29 9 -3 23 -16 30 -30
7 -14 21 -27 30 -30 9 -3 22 -17 28 -30 11 -23 17 -25 81 -25 59 0 73 -3 91
-22 11 -12 20 -25 20 -30 0 -4 45 -8 100 -8 90 0 102 -2 118 -21 9 -12 23 -27
30 -33 7 -6 19 -17 27 -24 21 -19 20 -127 -1 -144 -8 -7 -23 -21 -32 -32 -9
-10 -23 -24 -30 -32 -10 -10 -39 -14 -100 -14 -94 0 -103 3 -121 38 -9 17 -20
22 -54 22 -54 0 -67 13 -67 67 0 36 -4 45 -24 54 -13 6 -29 22 -35 35 -10 22
-16 24 -84 24 -72 0 -75 -1 -116 -39 -45 -42 -50 -66 -16 -85 32 -18 36 -28
31 -79 -6 -56 5 -93 32 -101 10 -4 25 -17 32 -31 7 -14 21 -27 30 -30 9 -3 23
-17 30 -30 12 -23 19 -25 81 -25 57 0 72 -4 89 -22 11 -12 20 -25 20 -30 0 -4
76 -8 170 -8 165 0 170 1 181 23 17 31 28 37 72 37 30 0 40 5 49 25 6 13 19
27 28 30 9 3 23 16 29 29 7 13 24 29 37 34 18 9 23 20 26 59 3 41 7 50 31 61
15 7 27 20 28 28 0 7 1 50 1 94 0 112 1 109 -26 121 -13 6 -30 22 -37 35 -6
13 -20 26 -29 29 -9 3 -23 16 -30 30 -7 14 -21 27 -30 30 -9 3 -23 16 -30 30
-7 14 -21 27 -30 30 -9 3 -22 17 -28 30 -11 24 -15 25 -111 25 -90 0 -102 2
-121 22 -11 12 -20 25 -20 30 0 4 -30 8 -68 8 -66 0 -68 1 -116 45 -49 45 -49
45 0 90 35 33 57 45 79 45 22 0 38 9 58 32 27 33 27 33 55 0 20 -24 35 -32 59
-32 30 0 63 -21 63 -41 0 -5 11 -14 24 -20 13 -6 29 -22 35 -35 10 -23 14 -24
121 -24 134 0 130 -4 121 153 -1 9 -12 22 -25 28 -13 6 -30 22 -37 35 -6 13
-20 26 -29 29 -9 3 -23 16 -30 30 -7 14 -21 27 -30 30 -9 3 -23 17 -30 30 -13
25 -13 25 -270 25 -257 0 -257 0 -270 -25z M13625 2450 c-3 -5 -6 -271 -6
-590 0 -319 3 -585 6 -590 9 -14 222 -13 231 1 3 6 6 120 5 253 -1 132 2 246
6 252 5 6 18 16 31 23 17 9 22 20 22 54 0 61 10 67 116 67 135 0 125 26 123
-335 0 -167 2 -308 6 -314 8 -14 281 -15 290 -1 5 7 8 463 5 622 0 9 -12 23
-27 30 -24 11 -28 20 -31 61 -3 39 -8 50 -26 59 -13 5 -29 21 -35 34 -8 19
-18 24 -48 24 -44 0 -55 6 -72 38 -11 20 -19 22 -91 22 -72 0 -80 -2 -91 -22
-16 -30 -28 -38 -64 -38 -21 0 -37 -9 -55 -30 -18 -22 -31 -29 -42 -25 -16 6
-17 27 -16 200 0 106 -2 198 -6 204 -9 14 -222 15 -231 1z M15845 2450 c-3 -5
-6 -271 -6 -590 0 -319 3 -585 6 -590 8 -13 282 -13 290 0 3 5 6 271 6 590 0
319 -3 585 -6 590 -8 13 -282 13 -290 0z M16445 2450 c-3 -5 -6 -271 -6 -590
0 -319 3 -585 6 -590 8 -13 282 -13 290 0 3 5 6 271 6 590 0 319 -3 585 -6
590 -8 13 -282 13 -290 0z M18725 2450 c-3 -5 -6 -271 -6 -590 0 -319 3 -585
6 -590 9 -14 222 -13 230 1 4 5 7 176 6 379 0 312 2 370 14 380 32 27 45 -5
45 -111 0 -76 3 -101 15 -111 46 -39 46 -37 40 -129 -6 -94 -7 -90 50 -138 14
-11 16 -29 15 -95 -3 -112 -3 -115 24 -127 13 -6 30 -22 37 -35 12 -24 15 -25
123 -22 111 3 111 3 116 53 4 42 9 52 33 63 30 15 30 15 27 128 -1 66 1 84 15
95 57 48 56 44 50 138 -6 92 -6 90 40 129 11 9 15 32 15 81 0 75 16 105 45 81
12 -10 14 -70 14 -380 0 -203 2 -374 6 -380 8 -13 222 -14 230 0 3 5 6 271 6
590 0 319 -3 585 -6 590 -4 6 -89 10 -206 10 -228 0 -224 2 -212 -98 6 -50 3
-55 -42 -86 -17 -13 -19 -24 -17 -109 3 -98 3 -100 -43 -131 -17 -13 -20 -26
-20 -113 0 -98 0 -98 -41 -141 -64 -66 -76 -54 -69 69 5 106 7 101 -50 147
-13 11 -16 31 -13 109 2 85 0 96 -17 109 -46 31 -46 33 -43 127 1 51 -1 98 -5
105 -10 15 -402 18 -412 2z M6190 2391 c0 -25 -41 -51 -80 -51 -50 0 -62 -24
-53 -99 7 -65 -5 -81 -63 -81 -55 0 -60 -11 -58 -131 1 -105 4 -109 58 -109
25 0 48 -6 55 -14 9 -10 12 -99 10 -319 0 -168 2 -310 6 -316 3 -6 23 -11 43
-11 43 0 55 -7 71 -37 11 -22 18 -23 120 -23 103 0 108 1 120 24 7 13 24 29
37 35 13 6 24 19 25 28 9 149 7 153 -80 153 -104 0 -101 -8 -101 240 0 248 -3
240 101 240 87 0 89 4 80 153 -1 9 -12 22 -25 28 -13 6 -29 22 -35 35 -9 20
-18 24 -55 24 -24 0 -48 6 -54 13 -6 7 -13 60 -14 118 -3 104 -3 104 -55 107
-32 2 -53 -1 -53 -7z M2532 2151 c-13 -8 -20 -860 -7 -881 8 -13 222 -13 230
0 3 5 6 191 6 412 0 369 -1 404 -17 413 -9 6 -28 22 -42 38 -23 24 -32 27 -91
27 -36 0 -72 -4 -79 -9z M3121 2136 c-7 -13 -24 -29 -37 -35 -13 -6 -24 -19
-24 -28 -3 -207 1 -796 5 -803 9 -14 282 -13 291 1 3 6 6 134 5 284 -2 241 0
275 14 287 9 7 24 21 33 32 9 10 23 24 30 32 9 9 36 14 81 14 63 0 69 2 82 26
7 14 23 30 35 35 39 14 40 119 1 119 -7 0 -23 14 -35 30 -18 24 -30 30 -61 30
-29 0 -44 -7 -64 -30 -24 -27 -33 -30 -87 -30 -48 0 -63 4 -80 22 -11 12 -20
25 -20 30 0 4 -35 8 -78 8 -73 0 -80 -2 -91 -24z M4139 2138 c-17 -32 -28 -38
-72 -38 -30 0 -40 -5 -49 -25 -11 -25 -26 -32 -83 -37 -28 -3 -30 -6 -35 -53
-4 -42 -9 -52 -32 -63 -16 -7 -28 -20 -28 -28 -1 -7 -1 -104 -1 -214 0 -110 0
-207 1 -214 0 -8 12 -21 28 -28 23 -11 27 -20 30 -61 3 -39 8 -50 26 -59 13
-5 30 -21 37 -34 11 -22 19 -24 80 -24 57 0 72 -4 89 -22 11 -12 20 -25 20
-30 0 -4 49 -8 110 -8 103 0 110 1 121 23 17 31 28 37 72 37 30 0 40 5 49 25
6 13 19 27 28 30 9 3 23 17 31 31 7 15 23 30 35 35 27 10 39 55 25 92 -11 27
-11 27 -120 27 -104 0 -111 -1 -122 -22 -18 -35 -27 -38 -121 -38 -67 0 -90 4
-100 16 -17 20 -42 45 -62 62 -21 17 -21 66 0 86 13 14 54 16 295 16 321 0
296 -9 293 104 -1 46 -6 63 -20 72 -44 31 -47 36 -41 86 7 57 -4 94 -31 102
-10 4 -25 17 -32 31 -7 14 -21 27 -30 30 -9 3 -22 17 -28 30 -9 20 -19 25 -49
25 -44 0 -55 6 -72 38 -11 21 -18 22 -121 22 -103 0 -110 -1 -121 -22z m225
-234 c19 -18 22 -114 6 -145 -10 -17 -22 -19 -135 -19 -99 0 -127 3 -139 16
-21 20 -21 69 0 86 20 17 45 42 62 62 18 23 184 23 206 0z M5219 2138 c-17
-32 -28 -38 -72 -38 -30 0 -40 -5 -49 -25 -6 -13 -19 -27 -28 -30 -9 -3 -23
-16 -30 -30 -7 -14 -21 -27 -30 -30 -9 -3 -23 -16 -29 -29 -7 -13 -24 -29 -37
-35 -13 -6 -24 -17 -24 -26 -1 -8 -1 -105 -1 -215 0 -110 0 -207 1 -215 0 -9
11 -20 24 -26 13 -6 30 -22 37 -35 6 -13 20 -26 29 -29 9 -3 23 -16 30 -30 7
-14 21 -27 30 -30 9 -3 22 -17 28 -30 9 -20 19 -25 49 -25 44 0 55 -6 72 -37
11 -22 18 -23 121 -23 103 0 110 1 121 23 17 31 28 37 72 37 30 0 40 5 49 25
6 13 19 27 28 30 9 3 23 16 29 29 7 13 24 29 37 35 19 8 24 18 24 48 0 42 6
53 35 69 24 13 31 47 13 61 -8 6 -62 8 -148 4 -135 -6 -135 -6 -138 -51 -5
-62 -14 -70 -88 -70 -53 0 -67 4 -82 21 -9 12 -23 27 -30 33 -7 6 -21 19 -30
30 -9 10 -23 24 -30 30 -7 6 -19 17 -27 24 -22 20 -21 246 1 264 8 7 23 21 32
32 9 10 23 24 30 32 18 19 195 20 210 1 6 -7 12 -33 14 -57 3 -45 3 -45 84
-48 78 -3 81 -2 94 24 8 14 24 30 36 35 40 15 39 119 0 119 -8 0 -23 14 -33
30 -9 17 -25 32 -34 35 -9 3 -21 17 -27 30 -9 20 -19 25 -49 25 -44 0 -55 6
-72 38 -11 21 -18 22 -121 22 -103 0 -110 -1 -121 -22z M6959 2138 c-17 -32
-28 -38 -72 -38 -30 0 -40 -5 -49 -25 -6 -13 -19 -27 -28 -30 -9 -3 -23 -16
-30 -30 -7 -14 -21 -27 -30 -30 -9 -3 -23 -16 -29 -29 -7 -13 -24 -29 -37 -35
-13 -6 -24 -17 -24 -26 -1 -8 -1 -105 -1 -215 0 -110 0 -207 1 -215 0 -9 11
-20 24 -26 13 -6 30 -22 37 -35 6 -13 20 -26 29 -29 9 -3 23 -16 30 -30 7 -14
21 -27 30 -30 9 -3 22 -17 28 -30 9 -20 19 -25 49 -25 44 0 55 -6 72 -37 11
-22 18 -23 121 -23 103 0 110 1 121 23 17 31 28 37 72 37 30 0 40 5 49 25 6
13 19 27 28 30 9 3 23 17 31 31 7 15 23 30 35 35 27 10 39 55 25 92 -11 27
-11 27 -120 27 -104 0 -111 -1 -122 -22 -18 -35 -27 -38 -121 -38 -67 0 -90 4
-100 16 -17 20 -42 45 -62 62 -21 17 -21 66 0 86 13 14 54 16 295 16 321 0
296 -9 293 104 -1 46 -6 63 -20 72 -44 31 -47 36 -41 86 7 57 -4 94 -31 102
-10 4 -25 17 -32 31 -7 14 -21 27 -30 30 -9 3 -22 17 -28 30 -9 20 -19 25 -49
25 -44 0 -55 6 -72 38 -11 21 -18 22 -121 22 -103 0 -110 -1 -121 -22z m225
-234 c19 -18 22 -114 6 -145 -10 -17 -22 -19 -135 -19 -99 0 -127 3 -139 16
-21 20 -21 69 0 86 20 17 45 42 62 62 18 23 184 23 206 0z M10622 2138 c-15
-44 -6 -140 14 -154 44 -31 47 -36 41 -88 -6 -62 1 -83 33 -99 21 -10 26 -21
28 -60 3 -40 7 -50 28 -59 28 -13 34 -33 31 -106 -2 -44 2 -56 18 -67 43 -30
45 -35 42 -101 -2 -56 1 -68 18 -79 11 -8 26 -19 33 -25 17 -15 15 -67 -4 -82
-16 -14 -41 -38 -61 -60 -7 -7 -18 -18 -25 -24 -7 -6 -21 -21 -30 -33 -13 -15
-29 -21 -57 -21 -48 0 -53 -7 -55 -79 -3 -106 -12 -101 182 -101 168 0 169 0
181 24 7 13 24 29 37 34 18 9 23 20 26 59 2 39 7 50 28 60 30 15 42 46 34 89
-9 48 1 79 30 92 21 9 25 19 28 59 2 39 7 50 28 60 32 16 39 37 33 99 -6 52
-3 57 42 89 16 11 20 23 18 67 -3 73 3 93 31 106 21 9 25 19 28 59 2 39 7 50
28 60 32 16 39 37 34 98 -5 53 -1 63 31 81 34 19 29 43 -16 85 -41 38 -44 39
-114 39 -66 0 -73 -2 -85 -25 -7 -13 -22 -27 -32 -31 -27 -8 -38 -45 -31 -102
6 -50 3 -55 -42 -87 -17 -11 -20 -23 -18 -79 2 -49 -1 -68 -13 -78 -46 -38
-55 -50 -49 -68 12 -39 9 -100 -6 -115 -27 -27 -49 -8 -49 40 0 41 -4 49 -45
83 -11 9 -14 29 -12 78 2 56 -1 68 -18 79 -45 32 -48 37 -42 89 6 62 -1 83
-33 99 -20 10 -26 22 -30 62 -5 50 -5 50 -118 53 -109 3 -112 2 -120 -20z
M14999 2138 c-17 -32 -28 -38 -72 -38 -30 0 -40 -5 -49 -25 -6 -13 -19 -27
-28 -30 -9 -3 -23 -16 -30 -30 -7 -14 -22 -27 -32 -31 -27 -8 -38 -45 -31
-102 6 -50 3 -55 -41 -86 -17 -11 -19 -26 -19 -116 0 -90 2 -105 19 -116 44
-31 47 -36 41 -86 -7 -57 4 -94 31 -102 10 -4 25 -17 32 -31 7 -14 21 -27 30
-30 9 -3 22 -17 28 -30 9 -20 19 -25 49 -25 44 0 55 -6 72 -37 11 -22 17 -23
151 -23 134 0 140 1 151 23 17 31 28 37 72 37 30 0 40 5 49 25 6 13 19 27 28
30 9 3 23 17 31 31 7 15 23 30 35 35 27 10 39 55 25 92 -11 29 -27 33 -106 28
-34 -2 -45 3 -68 28 -15 17 -31 31 -36 31 -8 0 -80 -69 -109 -104 -18 -22
-126 -22 -144 0 -17 20 -42 45 -62 62 -21 17 -21 66 0 86 13 14 51 16 264 16
168 0 251 4 256 11 5 9 8 182 5 262 -1 9 -12 22 -25 28 -13 6 -30 22 -37 35
-6 13 -20 26 -29 29 -9 3 -23 16 -30 30 -7 14 -21 27 -30 30 -9 3 -22 17 -28
30 -9 20 -19 25 -49 25 -44 0 -55 6 -72 38 -11 21 -18 22 -121 22 -103 0 -110
-1 -121 -22z m223 -234 c17 -20 42 -45 62 -62 21 -17 21 -66 0 -86 -12 -13
-40 -16 -139 -16 -144 0 -145 1 -145 94 0 78 11 86 120 86 69 0 92 -4 102 -16z
M16982 2138 c-15 -44 -6 -140 14 -154 42 -29 44 -34 41 -100 -2 -56 1 -68 18
-79 45 -32 48 -37 42 -89 -6 -62 1 -83 33 -99 21 -10 26 -21 28 -60 3 -40 7
-50 28 -59 28 -13 34 -33 31 -106 -2 -44 2 -56 18 -67 11 -8 26 -19 33 -25 17
-15 15 -67 -4 -82 -16 -14 -41 -38 -61 -60 -7 -7 -18 -18 -25 -24 -7 -6 -21
-22 -31 -34 -17 -20 -24 -22 -81 -15 -50 5 -65 3 -75 -9 -17 -20 -11 -46 14
-60 11 -6 22 -12 25 -14 2 -2 7 -24 10 -50 5 -47 5 -47 146 -50 140 -3 140 -3
154 23 7 13 21 27 30 30 9 3 23 16 30 30 7 14 21 27 30 30 9 3 23 16 30 30 7
14 22 27 32 31 27 8 38 45 31 102 -6 50 -3 55 42 87 16 11 20 23 18 67 -3 73
3 93 31 106 21 9 25 19 28 59 2 39 7 50 28 60 32 16 39 37 33 99 -6 52 -3 57
42 89 17 11 20 23 18 79 -3 66 -1 71 41 100 16 11 19 27 20 102 2 134 2 134
-92 134 -73 0 -79 -2 -92 -25 -7 -13 -22 -27 -32 -31 -27 -8 -38 -45 -31 -102
6 -50 3 -55 -42 -87 -17 -11 -20 -23 -18 -79 2 -49 -1 -68 -13 -78 -46 -38
-55 -50 -49 -68 12 -39 9 -100 -6 -115 -27 -27 -49 -8 -49 40 0 41 -4 49 -45
83 -9 8 -15 29 -15 53 0 32 -4 41 -25 51 -29 13 -40 44 -31 92 8 43 -4 74 -34
89 -21 10 -26 21 -28 60 -3 39 -8 50 -26 59 -13 5 -30 21 -37 34 -11 22 -18
24 -91 24 -72 0 -79 -2 -86 -22z M20459 2138 c-17 -32 -28 -38 -72 -38 -30 0
-40 -5 -49 -25 -6 -13 -19 -27 -28 -30 -9 -3 -23 -17 -31 -31 -7 -15 -23 -30
-35 -35 -27 -10 -39 -55 -25 -92 11 -27 11 -27 121 -27 108 0 111 1 122 25 14
30 3 27 116 30 104 2 122 -6 122 -55 0 -46 -21 -59 -96 -57 -66 2 -84 -7 -97
-47 -2 -7 -32 -11 -76 -11 -61 0 -75 -3 -86 -20 -8 -11 -19 -24 -25 -30 -6 -5
-19 -18 -28 -29 -22 -24 -33 -34 -56 -50 -16 -11 -18 -26 -18 -132 0 -65 1
-127 1 -137 1 -9 12 -22 25 -28 13 -6 29 -22 35 -35 8 -19 18 -24 48 -24 44 0
55 -6 72 -37 11 -21 19 -23 91 -23 78 0 80 0 95 30 13 25 21 30 53 30 30 0 42
6 65 32 27 33 27 33 55 0 27 -32 27 -32 129 -32 56 0 105 4 108 10 4 7 8 504
5 683 0 9 -11 22 -24 28 -13 6 -30 22 -37 35 -6 13 -20 26 -29 29 -9 3 -22 17
-28 30 -9 20 -19 25 -49 25 -44 0 -55 6 -72 38 -11 21 -17 22 -151 22 -134 0
-140 -1 -151 -22z m291 -533 c11 -13 8 -21 -22 -48 -29 -26 -35 -38 -31 -60 7
-37 -12 -57 -56 -57 -29 0 -41 -6 -63 -32 -27 -33 -27 -33 -72 17 -49 53 -59
93 -30 117 20 17 45 42 62 62 18 23 194 23 212 1z M21361 2136 c-7 -13 -24
-29 -37 -35 -13 -6 -24 -19 -24 -28 -3 -207 1 -796 5 -803 9 -14 282 -13 291
1 3 6 6 134 5 284 -2 241 0 275 14 287 9 7 24 21 33 32 9 10 23 24 30 32 9 9
36 14 81 14 63 0 69 2 82 26 7 14 23 30 35 35 27 10 39 55 25 92 -9 23 -16 27
-52 27 -33 0 -46 6 -67 30 -22 25 -34 30 -69 30 -24 0 -43 -3 -43 -7 0 -5 -22
-32 -49 -61 -60 -65 -79 -63 -83 11 -3 52 -3 52 -84 55 -76 3 -81 2 -93 -22z
M22259 2138 c-17 -32 -28 -38 -72 -38 -30 0 -40 -5 -48 -24 -6 -13 -22 -29
-35 -35 -13 -6 -24 -19 -25 -28 0 -10 -1 -72 -1 -138 0 -104 2 -121 17 -130
10 -5 25 -18 34 -29 9 -10 22 -24 29 -30 7 -6 25 -23 39 -38 23 -25 34 -28 87
-28 67 0 77 -4 95 -37 10 -20 19 -23 79 -23 66 0 69 -1 115 -44 60 -54 56 -76
-12 -76 -41 0 -48 -4 -63 -30 -22 -38 -34 -38 -56 0 -14 25 -23 30 -54 30 -22
0 -43 7 -50 16 -36 43 -102 104 -114 104 -7 0 -23 -14 -35 -31 -21 -31 -23
-31 -84 -24 -49 5 -64 3 -74 -9 -17 -20 -11 -46 14 -60 29 -16 35 -27 35 -69
0 -30 5 -40 24 -48 13 -6 30 -22 37 -35 11 -22 19 -24 80 -24 57 0 72 -4 89
-22 11 -12 20 -25 20 -30 0 -4 63 -8 140 -8 134 0 140 1 151 23 17 31 28 37
72 37 30 0 40 5 49 25 6 13 19 27 28 30 9 3 23 16 29 29 7 13 24 29 37 35 13
6 24 19 25 28 0 10 1 72 1 137 0 106 -2 121 -18 132 -24 17 -32 24 -49 49 -11
17 -25 20 -83 20 -65 0 -72 2 -92 28 -19 24 -28 27 -83 27 -68 0 -78 4 -96 38
-10 18 -20 22 -60 22 -71 0 -75 22 -14 76 51 46 92 56 115 28 7 -8 21 -23 30
-32 10 -9 30 -29 45 -44 25 -27 30 -28 130 -28 126 0 123 -3 114 153 -1 9 -12
22 -25 28 -13 6 -29 22 -35 35 -8 19 -18 24 -48 24 -44 0 -55 6 -72 38 -11 21
-16 22 -181 22 -165 0 -170 -1 -181 -22z"/></g></g>
</svg>
